<?xml version="1.0" standalone="no"?>
<!DOCTYPE svg PUBLIC "-//W3C//DTD SVG 1.1//EN" "http://www.w3.org/Graphics/SVG/1.1/DTD/svg11.dtd" >
<svg xmlns="http://www.w3.org/2000/svg" xmlns:xlink="http://www.w3.org/1999/xlink" version="1.1">
<metadata></metadata>
<defs>
<font id="spiderman-homecomingregular" horiz-adv-x="1014" >
<font-face units-per-em="2048" ascent="1638" descent="-410" />
<missing-glyph horiz-adv-x="508" />
<glyph unicode="&#xd;" horiz-adv-x="508" />
<glyph horiz-adv-x="0" />
<glyph horiz-adv-x="0" />
<glyph unicode=" "  horiz-adv-x="508" />
<glyph unicode="&#x09;" horiz-adv-x="508" />
<glyph unicode="&#xa0;" horiz-adv-x="508" />
<glyph unicode="!" horiz-adv-x="610" d="M182 479v1012h246v-1012h-246zM309 -18q-59 0 -99 38.5t-40 102.5q0 59 40 98t99 39q62 0 101 -39t39 -98q0 -64 -39 -102.5t-101 -38.5z" />
<glyph unicode="&#x22;" horiz-adv-x="926" d="M571 954l-49 535h264l-47 -535h-168zM186 954l-47 535h264l-47 -535h-170z" />
<glyph unicode="#" horiz-adv-x="1427" d="M643 0l121 403h-305l-121 -403h-182l118 403h-184v175h238l106 358h-186v172h239l115 381h186l-114 -381h303l115 381h184l-115 -381h187v-172h-240l-107 -358h187v-175h-240l-121 -403h-184zM924 936h-306l-106 -358h305z" />
<glyph unicode="$" horiz-adv-x="1524" d="M829 145v-145h-114v145h-582v213h582v312h-234q-84 0 -151.5 25.5t-114.5 70.5t-72.5 107.5t-25.5 136.5q0 71 23.5 132.5t70.5 105.5t114.5 69.5t157.5 25.5h232v146h114v-146h517v-208h-517v-293h203q180 0 275.5 -84t95.5 -262q0 -76 -22.5 -139.5t-68.5 -110.5 t-116 -74t-164 -27h-203zM1032 358q86 0 129 41t43 113q0 80 -44 119t-128 39h-203v-312h203zM715 1135h-232q-71 0 -110 -40t-39 -106q0 -69 41 -108t108 -39h232v293z" />
<glyph unicode="%" horiz-adv-x="1976" d="M86 0zM471 758q-82 0 -152.5 30.5t-122 83t-81 124t-29.5 151.5q0 82 29.5 150.5t81 118.5t122 78t152.5 28t152.5 -28t123 -78t82 -118.5t29.5 -150.5q0 -80 -29.5 -151.5t-82 -124t-123 -83t-152.5 -30.5zM727 1141q0 108 -66.5 179t-189.5 71t-189.5 -71t-66.5 -179 q0 -109 66.5 -180.5t189.5 -71.5t189.5 71.5t66.5 180.5zM199 -137l1345 1716h174l-1341 -1716h-178zM1503 -31q-82 0 -152.5 31t-121.5 83t-81 124t-30 151q0 82 30 151t81 119t121.5 77.5t152.5 27.5t152.5 -27.5t123 -77.5t82 -119t29.5 -151q0 -79 -29.5 -151t-82 -124 t-123 -83t-152.5 -31zM1759 352q0 109 -66.5 179.5t-189.5 70.5t-189.5 -70.5t-66.5 -179.5q0 -108 66.5 -180t189.5 -72t189.5 72t66.5 180z" />
<glyph unicode="&#x26;" horiz-adv-x="1554" d="M580 0q-111 0 -200 31.5t-150.5 91t-95.5 143.5t-34 187q0 129 66.5 215t167.5 118q-84 27 -144.5 102t-60.5 216q0 94 34 166.5t97.5 121t152.5 73t197 24.5h283v-258h-291q-211 0 -211 -184q0 -86 53.5 -133.5t163.5 -47.5h795v-217h-176v-389h268v-260h-915zM967 649 h-340q-127 0 -196 -41t-69 -149q0 -97 68 -148t193 -51h344v389z" />
<glyph unicode="'" horiz-adv-x="522" d="M178 954l-49 535h264l-49 -535h-166z" />
<glyph unicode="(" horiz-adv-x="729" d="M416 -182q-119 258 -171 486t-52 456q0 227 53 451.5t164 480.5h188q-121 -275 -180.5 -501t-59.5 -433q0 -209 55.5 -437.5t186.5 -502.5h-184z" />
<glyph unicode=")" horiz-adv-x="727" d="M129 -182q129 274 184.5 502.5t55.5 437.5t-57.5 433t-178.5 501h184q111 -256 165.5 -480.5t54.5 -451.5q0 -228 -52.5 -456t-171.5 -486h-184z" />
<glyph unicode="*" horiz-adv-x="961" d="M639 817l-160 223l-157 -223l-97 74l156 221l-252 78l37 115l252 -78v262h123v-262l254 78l36 -115l-253 -78l157 -223z" />
<glyph unicode="+" horiz-adv-x="1413" d="M621 178v494h-492v172h492v491h174v-491h489v-172h-489v-494h-174z" />
<glyph unicode="," horiz-adv-x="530" d="M139 -242v533h262l-102 -533h-160z" />
<glyph unicode="-" horiz-adv-x="606" d="M59 670v174h492v-174h-492z" />
<glyph unicode="." horiz-adv-x="537" d="M408 123q0 -60 -41 -99.5t-101 -39.5q-59 0 -98 39.5t-39 99.5q0 59 39 99t98 40q60 0 101 -40t41 -99z" />
<glyph unicode="/" horiz-adv-x="909" d="M18 0l701 1489h170l-690 -1489h-181z" />
<glyph unicode="0" horiz-adv-x="1716" d="M941 1407l4 -8v-8q0 -6 -12 -12l-4 8v8q0 6 12 12zM1173 1379q8 -1 8 -8q0 -18 -32 -36l-8 12q0 32 32 32zM385 1367q8 -1 8 -8v-4h-8v12zM905 1347q8 -1 8 -8l-8 -4v12zM1045 1327h12q8 -1 8 -8v-4q0 -9 -36 -16h-8v8q0 6 24 20zM969 1315l4 -8h-12q1 8 8 8zM1101 1315 h12v-8q-9 0 -24 -12h-8v4q0 6 20 16zM229 1307h12q9 0 12 -28l-16 -12h-4q-16 7 -16 28q0 6 12 12zM1117 1307h12v-8h-4q-8 0 -8 8zM829 1295v-12h-8v4q1 8 8 8zM393 1291h8v-8q0 -8 -8 -8t-8 8q1 8 8 8zM437 1287h4q8 -1 8 -8l-8 -4h-4v12zM629 1287h12v-4q0 -8 -8 -8l-4 8 v4zM1081 1287h12v-4q0 -8 -8 -8l-4 8v4zM825 1275q16 -6 16 -12t-16 -16q-6 0 -12 12v8q0 8 12 8zM1121 1275h8v-8q-8 0 -8 8zM989 1271l4 -8q-20 -32 -48 -32l-4 8v8q12 24 48 24zM797 1267l4 -8l-8 -4l-4 8zM1081 1263h4v-8h-4v8zM1173 1263h8q8 -1 8 -8h-16v8zM441 1259 l4 -8l-8 -4l-4 8zM1045 1255q11 -1 16 -20q-15 -12 -28 -12l-4 8q0 24 16 24zM1605 1251h12v-12q0 -6 -12 -12h-4q-8 0 -8 8v4q0 6 12 12zM509 1247h4q8 -1 8 -8v-4q0 -8 -8 -8h-4q-8 0 -8 8v4q1 8 8 8zM185 1239h12v-4q0 -8 -8 -8l-4 8v4zM557 1239v-12q-8 0 -8 8z M1145 1239h8q28 -16 28 -20q-4 -8 -4 -12q8 -1 8 -8v-12h-8q-4 24 -12 24h-4l-12 -8q-9 0 -12 32zM873 1235l4 -8v-8l-4 -8q-32 4 -32 12q1 8 8 8l8 -4zM1109 1231l4 -8q0 -2 -20 -24q20 -5 20 -12v-12q20 0 20 -24l8 4v-4q0 -8 -8 -8q-16 10 -16 28h-4q0 -21 -68 -32l-4 16 q16 4 28 12l8 -4v4q-4 2 -4 28q14 36 36 36zM729 1211l24 -20v-4q0 -8 -8 -8h-12q0 24 -20 24v4q2 0 16 4zM1193 1211h8v-4h-8v4zM1553 1211h8v-8h-8v8zM361 1207h4v-8h-4v8zM765 1203h8v-4h-8v4zM929 1203h8v-12h-16v4q1 8 8 8zM989 1203h8q0 -8 -8 -8v8zM689 1199 q16 -4 16 -24h-12q0 10 -8 20q4 0 4 4zM901 1199h4q0 -12 20 -12v-8q0 -8 -8 -8h-4q-6 0 -16 16q4 8 4 12zM1137 1199h16v-4q0 -8 -8 -8t-8 8v4zM837 1195l4 -8h-4l4 -8q0 -6 -12 -12h-4q-6 0 -12 12v4q4 12 24 12zM1037 1195h8v-8h-8v8zM561 1191h8v-4q0 -6 -12 -12 q-4 0 -4 4l-8 -4q-8 0 -8 8l8 4l8 -4q1 8 8 8zM657 1191h4l8 -4q0 4 4 4l4 -8v-4l-28 -4v8q1 8 8 8zM969 1191h4v-4q-16 -23 -16 -48h-16q-8 0 -8 8v4q26 40 36 40zM869 1187q8 0 12 -28l-8 -4h-8q0 6 -8 16v4q0 6 12 12zM1005 1187h8v-8h-8v8zM461 1183h8v-8q-8 0 -8 8z M785 1183h4q6 0 12 -12l-12 -8q-6 0 -12 12q1 8 8 8zM1529 1175l4 -8v-4q-2 -12 -32 -12h-12v8q0 11 40 16zM741 1171h8v-8q-8 0 -8 8zM1005 1171l16 -4q8 4 12 4l4 -8q0 -31 -56 -48q0 -12 -20 -12v-4q0 -6 12 -12q4 0 24 24h4q21 -20 32 -20l8 12v4l-8 -4h-8q-8 0 -8 8v8 h8v-8h8l12 8q0 -5 24 -20q21 0 24 12q40 -4 40 -12l-4 -8h12q8 0 8 16h12q0 -26 12 -40v-8q0 -4 -4 -4q4 -7 4 -16h12q8 0 8 16h8q0 -6 16 -16l-4 -8q32 0 32 -12q-4 0 -4 -4q6 0 24 -20q8 0 8 8q-10 8 -16 8v8q10 0 20 8h8q0 -12 16 -12q0 8 12 8q16 -6 16 -12l-8 -4l-8 4 q0 -12 -12 -12v-4q0 -8 28 -12q1 8 8 8v-12q-12 0 -12 -24q0 -6 16 -24q0 -8 -8 -8l-8 12l-8 -4q-8 4 -12 4v-8q12 0 12 -20l8 4h4q0 -9 -4 -16l4 -8q-2 -16 -12 -16v-4l28 -16q4 -8 4 -12l20 4l8 -12q-18 -8 -20 -16q0 -12 16 -12l28 4l4 -8q0 -24 -36 -32v-4q-8 4 -12 4v8 h8v4q-9 0 -16 4q-8 -13 -8 -24q8 -1 8 -8l-4 -8q4 0 4 -4q-8 -4 -12 -4l16 -20q0 -8 -12 -8v-4h4l8 4l24 -4q0 9 32 20q4 0 4 -4l28 4h12q5 0 20 -20v-8q0 -8 -8 -8l-16 8q0 -8 -32 -12q-12 17 -12 28h-12q0 -8 -4 -8l4 -8l-12 -16q12 0 12 -8h-8l-20 4q0 -12 -8 -12h-8 q0 16 -8 16h-4l-4 -20q0 -30 24 -48l-8 -4h-4l-8 4q0 -8 -8 -8q4 -8 4 -12q13 8 20 8l4 -8q-6 0 -16 -16q6 -28 16 -28q0 4 4 4l4 -8v-4l-20 -24l4 -8l-4 -24l8 -4h4q0 13 4 20q17 -5 24 -20v-4h-8l-12 8q0 -8 -8 -8l4 -8l-4 -8q4 0 4 -4l-8 -4q0 8 -8 8h-12l12 -16v-12h-8 l-8 28h-4q0 -7 -8 -32q7 -4 16 -4v-4h-8v-8l4 -8h-4l4 -8v-4l-8 -12h32v-16h-4l-12 8l-16 -16h8v-4q0 -9 -20 -12v-4q12 -18 12 -36h-20q4 8 4 12h-12q0 -4 -4 -12q8 -16 8 -28q0 -4 -16 -24q4 -7 4 -16q-28 -2 -28 -20l12 -8l8 4v-4q0 -8 -8 -8h-4q-16 8 -16 20h-8 q-6 0 -16 -16v-4h12v-8h-8l-8 4q0 -8 -8 -8l-12 8q0 -22 -16 -44q4 -7 4 -16l-8 -4h-4l-4 20h-4q-9 0 -16 -40l-28 4q4 -8 4 -12h4l8 4l4 -8q-12 -4 -28 -28q-8 0 -8 4v8h-32l4 -8q0 -4 -4 -4l4 -8v-4h-8v12h-12q0 -4 -4 -12q8 -1 8 -8l-8 -4h-4v16h-8q0 -16 -20 -16v-4h12 v-12l-8 -12q-32 4 -32 12q4 7 4 16l-8 -4l-16 12h-8l-12 -8q-8 4 -12 4l-4 -8q4 0 4 -4l8 4q8 -4 12 -4v-8h-16q0 4 -4 4l-8 -4l-8 4q-8 -4 -12 -4q0 8 -8 8h-8q0 -10 -16 -24q8 -1 8 -8q0 -8 -8 -8q-11 28 -28 28q0 -6 -24 -24q0 9 -4 16q-18 0 -36 -16q-29 0 -40 32 q-7 4 -16 4q-20 -3 -20 -12l8 -12q0 -8 -8 -8t-28 28q1 8 8 8q8 -4 12 -4v12q0 8 -8 8h-4l-12 -8q-7 28 -16 28q-4 -8 -4 -12l-20 4q-8 -1 -8 -8v-4q36 0 36 -40l-8 -4q-8 0 -8 8q8 0 8 8q-18 12 -24 12l-8 -4q-7 4 -16 4q0 -8 12 -8v-4l-8 -12q12 0 12 -8v-4q0 -8 -8 -8h-4 q-8 0 -8 12l-20 -4h-4v4l12 16v4h-8l-20 -16h-16q-8 0 -8 8v4q1 8 8 8l20 -4q8 13 8 20l-8 4q-7 -4 -16 -4l-4 8l16 32v8q-20 22 -20 28q-16 -6 -16 -12v-4q0 -12 24 -12v-20h-4q-8 4 -12 4q0 -8 -24 -16q0 15 -8 24v4q7 9 12 40h-4q-7 0 -12 -24q4 0 4 -4q-21 -6 -36 -44 h-4q-24 4 -24 12q0 12 32 12v8q-18 36 -44 48v-12h-4v16l16 8q0 4 -16 24l8 12q-4 8 -4 12h-8q-20 -12 -20 -40h-4l-8 4q0 -4 -4 -4v12l12 16v4l-8 -4q-12 20 -24 20l-8 12l8 28l-20 8l-8 -12q12 0 12 -8t-8 -8t-8 12q-6 -4 -24 -4q11 -20 16 -20l-4 -8l4 -20h-8v8h-8l8 -12 q0 -8 -8 -8h-12q0 10 -12 20q6 0 12 12q0 3 -4 24q12 22 12 36h4l8 -4q5 28 20 28v8h-20q0 -12 -8 -12h-20q0 24 16 24v12l-28 -32l-16 8q-7 -18 -24 -28h-4q-8 0 -8 8v4l16 20l-20 4v16q0 6 24 24h8q0 -16 8 -16v-8h-4l-8 4q0 -8 -12 -8q1 -8 8 -8h20v8h24v8l-8 12l12 8h4 l24 -20h16v20q-24 21 -24 28q4 7 4 16h8q0 -12 8 -12q6 0 12 12q-12 18 -12 28h-8l-20 -16h-8v24q0 6 16 16q8 -4 12 -4v4q-5 45 -8 56q4 7 4 16v12q-10 0 -36 40v4l12 20l-12 8l-20 -16h-4q3 15 36 32q0 13 4 20q-20 11 -20 16q1 8 8 8l4 -8q16 3 16 8l-4 8q4 7 4 16 q-11 0 -24 -8l-4 8v4q20 11 20 16q0 8 12 8l-8 12v40q29 8 52 48v4l-16 16l8 4q0 -4 4 -4l4 24h4q8 -1 8 -8q-8 -1 -8 -8h4l36 48q0 2 -16 20l16 12q8 0 8 -12h12q6 0 12 12l-12 16v12l28 24h4q8 -1 8 -8l-4 -20q44 29 44 44h4l8 -4q8 40 16 40h16l-4 -8h8q28 0 28 28h8v8 l-24 16q20 8 28 8q29 0 44 -20h16q6 0 12 12q-22 0 -28 44v4h4l32 -32h4v16l-16 20v4q0 4 4 4l-4 8v4q8 10 8 16q13 -8 24 -8q8 4 12 4q8 -35 8 -48h-8q-5 0 -32 40l-4 -8v-8q0 -8 16 -8l-4 -8v-8q20 0 20 -16h12q20 11 20 16v24q0 9 -20 12v4q1 8 8 8l24 -16l8 4l20 -4 q20 0 20 24h8l20 -20v-4l-12 -16q8 -13 8 -20h12l-8 12q7 19 12 48q18 -7 28 -24v-4q-20 -16 -20 -20v-4h12l12 8h12q11 -10 48 -12l16 8q7 -4 16 -4q0 18 44 32v32zM489 1167h8q0 -8 -8 -8v8zM525 1167h4q8 -1 8 -8l-8 -4h-4v12zM593 1167h4q6 0 12 -12v-4q0 -8 -8 -8 l-8 12v12zM893 1163h8v-4h-8v4zM913 1163q0 -21 12 -32v-4q-16 6 -16 12l-20 -16h-4q-8 0 -8 8v12q1 8 8 8v-4l8 4l8 -4q6 16 12 16zM1017 1155v-12q8 0 8 8v4h-8zM637 1151q8 -20 8 -28q-4 0 -4 4l-8 -4h-8q-8 0 -8 8v4q0 6 20 16zM1157 1151q8 -4 12 -4v-8h-8q-8 0 -8 8 q4 0 4 4zM1553 1147h8v-8q0 -8 -8 -8h-8v8q1 8 8 8zM585 1139l4 -8q0 -8 -8 -8l-4 8q1 8 8 8zM441 1135l4 -20q-5 -20 -12 -20l-8 12q0 8 12 8l-4 8v4q1 8 8 8zM465 1135h4q8 -1 8 -8l-16 -12l-4 8v4q1 8 8 8zM1213 1135h8v-8h-8v8zM373 1131h8v-8h-8v8zM1065 1131l4 -8v-8 h-12v8q1 8 8 8zM1093 1131h8v-12q-8 0 -8 8v4zM509 1127h4v-4q0 -8 -8 -8l-4 8zM1181 1115q8 -1 8 -8v-4q0 -8 -8 -8h-4q-8 0 -8 8q0 6 12 12zM1201 1111h8v-4h-8v4zM1241 1111h4v-4q0 -6 -12 -12h-4v4q0 6 12 12zM613 1107h16v-12q0 -8 -8 -8t-8 8v12zM741 1103 q0 -6 12 -12h4v12h-16zM781 1103v-4h8v4h-8zM401 1103h4v-8h-4v8zM565 1103h16q8 -1 8 -8q-6 0 -16 -8q-8 0 -8 8v8zM1261 1103h8v-8h-8v8zM469 1099h12v-8h-12v8zM513 1095h8v-4q0 -6 -12 -12h-12q-8 0 -8 8q13 8 24 8zM1221 1095q12 -23 12 -28q-4 0 -4 -4q-16 6 -24 20 q0 6 16 12zM1377 1095v-8q-21 -24 -40 -24l-8 12q26 20 48 20zM449 1091h4l20 -32q12 0 12 -12l-16 -4q-20 34 -20 48zM561 1083h8v-8q-8 0 -8 8zM1065 1079v-8h8q0 8 -8 8zM1177 1083h8q0 -8 -8 -8v8zM85 1079q5 0 20 -20q0 -6 -16 -16l-16 20v4q0 6 12 12zM529 1079h4 q4 0 4 -4l8 4h4v-4l-8 -12h16v-4l-40 -36q-4 7 -8 36q7 0 24 12zM1121 1067v-4q17 0 28 -24q0 -8 -20 -8v-4q1 -8 8 -8l20 16q0 7 -16 40q-10 -8 -20 -8zM1261 1075v-8q15 12 28 12q0 -8 12 -8q0 -8 -8 -40h-12q0 12 -4 12q-8 -4 -12 -4l-4 8v12q-8 -4 -12 -4l-4 8v12h16z M1501 1079v-4l-8 -12q8 -1 8 -8v-8q0 -8 -8 -8h-16q-8 0 -8 8q4 32 32 32zM401 1075q0 -20 16 -20v-8h-4l-8 4v-4l-8 4l-16 -28q-7 -4 -16 -4q-10 20 -16 20q-12 0 -12 8q41 28 64 28zM1041 1063v-8h8q8 0 8 8t-8 8q-8 -1 -8 -8zM1413 1071h4v-4l-4 -8q9 0 16 -4 q-6 -20 -24 -20q0 4 -4 4q4 32 12 32zM437 1067h4v-4q0 -6 -12 -12l-4 8zM1093 1059v-4q16 -12 16 -20q8 4 12 4v4q-8 10 -8 16h-20zM1213 1063h4v-8h-4v8zM401 1043h8v-4h-8v4zM437 1043l8 -12l-8 -4h-4q0 4 -4 12zM489 1043h8v-8h-8v8zM1309 1043h4v-8h-4v8zM569 1039 l4 -8l-8 -4l-4 8zM277 1031h8v-4h-8v4zM1569 1027q8 -1 8 -8l-8 -4h-8v4q1 8 8 8zM469 1023h16q8 -1 8 -8v-4q0 -8 -8 -8h-4q-9 0 -12 20zM1441 1023h8q8 -1 8 -8v-4q0 -8 -8 -8h-4q-6 0 -12 12q1 8 8 8zM397 1019h4v-8h-4v8zM373 1015q8 -1 8 -8q0 -8 -8 -8h-8v8q1 8 8 8z M513 1015l4 -8v-4h-4q-8 0 -8 8zM1201 1003v-4h4q8 4 12 4q8 -4 12 -4l8 12h-20q-10 -8 -16 -8zM1281 1011v-8h8v8h-8zM1369 1015h36v-8q0 -8 -8 -8h-28q-8 0 -8 8q1 8 8 8zM457 1011v-4q-19 -18 -24 -32q-16 6 -16 12q20 24 40 24zM265 1007q6 0 12 -12v-8q0 -8 -8 -8h-4 q-6 0 -12 12v4q0 6 12 12zM345 1007h8q0 -8 -8 -8v8zM1561 1007h4v-12h-4q-8 0 -8 8zM1345 1003h8v-8q-9 0 -16 -4v4q1 8 8 8zM389 999q8 -1 8 -8q-6 -16 -12 -16l-4 8v8q1 8 8 8zM1269 987q6 -16 12 -16q0 4 4 4v-4q16 6 16 12q-16 0 -16 12h-4zM473 995h4q8 -1 8 -8 q0 -8 -8 -8h-4q-8 0 -8 8q1 8 8 8zM173 991l4 -8l-8 -4l-4 8zM1237 975v-4q28 0 28 -8l-4 -8l8 -4h4v8l-16 20q-7 -4 -20 -4zM1397 983h4q30 -5 32 -16v-8q0 -6 -12 -12h-4q-7 0 -20 32v4zM245 979h8q0 -11 12 -28l-8 -4q-9 0 -12 32zM281 979h4v-8h-4v8zM337 979h12 q0 -8 -8 -8zM417 979q8 -1 8 -8q0 -8 -8 -8h-4q-8 0 -8 8zM365 975v-8h-8q1 8 8 8zM773 951h-8v16h-8q-20 0 -48 -8v4q-24 -5 -24 -12q23 -76 44 -76h32q26 0 52 32l-4 8v4q0 9 4 16q-4 7 -4 16v12h-4q-8 -4 -12 -4q0 6 -12 12q-8 0 -8 -20zM325 971l24 -20v-4q0 -6 -32 -16 v-8h-12q0 10 -8 20q8 4 12 4v4l-4 8h4l8 -4q0 16 8 16zM849 963l-4 -8v-52q17 -32 68 -32h12q16 0 32 64v8q-77 20 -108 20zM1345 963q8 -1 8 -8v-4h-16v4q1 8 8 8zM265 959h8v-4h-8v4zM377 959h4q6 0 16 -16q0 -12 -20 -12v-12l8 4h4v-8q-12 0 -12 -12h-8q0 20 -8 20 q4 36 16 36zM409 951h4q8 -1 8 -8v-8h-12v16zM217 943q24 -2 24 -12v-12q0 -8 -8 -8h-20l-4 20v4q1 8 8 8zM605 915l-8 4q-48 -30 -48 -40v-4q42 -56 60 -56q72 29 72 60q-23 60 -44 60q-27 -11 -32 -24zM281 939l8 -4q-4 -8 -4 -12h-4q-8 0 -8 8q1 8 8 8zM993 927 q-20 -48 -20 -56q35 -56 88 -56l28 24l-4 20v20q-74 48 -92 48zM1369 931l4 -8l-8 -4l-4 8zM1265 915l-4 -8q4 0 4 -4q8 4 12 4v4q-4 0 -12 4zM1285 907v-20q28 4 28 12l-12 8h-16zM329 907h4v-8q-12 0 -12 -16h-8v8q0 6 16 16zM353 907q8 -1 8 -8v-4h-8v12zM1413 907 q8 -1 8 -8v-12h-4q-6 0 -12 12q1 8 8 8zM285 903v-12h-8v4q1 8 8 8zM241 895l4 -8q13 8 20 8l8 -12v-12l-8 -12l20 4l16 -12h8v4l-4 8h4l28 -12v4q0 2 -16 20v4q10 0 20 8l4 -8l-4 -8l8 -4h4v16h12l-8 -28h-4l-8 4q0 -8 -4 -8l4 -8q0 -6 -12 -12h-4l-20 12l-4 -8v-16h8l28 4 l4 -8q-4 -8 -4 -12q4 0 4 -4q-16 0 -16 -12h-8q-10 32 -28 32q-4 -8 -4 -12h-8q-3 24 -24 24l4 28l-28 -4l-12 16v12q0 7 20 12zM293 895h8q8 -1 8 -8l-8 -4h-8v12zM1377 891l8 -4l20 4q8 -16 8 -24l-8 -4h-4v12q-12 -16 -20 -16q-16 6 -16 12q5 20 12 20zM1345 887h8v-8 q-8 0 -8 8zM161 883h12q0 -8 -8 -8zM725 851q24 -75 36 -88h12q44 12 44 24v92h-4q-13 -17 -88 -28zM849 871q0 -4 -4 -4l4 -8l-4 -8l4 -16q0 -4 -4 -4q0 -62 32 -68q27 0 32 52q12 6 12 36q-38 0 -72 20zM1429 871v-12q-8 0 -8 8zM685 855q-35 -48 -72 -48q0 -26 64 -80h8 l36 36q-24 92 -36 92zM961 851l-32 -84q24 -40 48 -40l44 56l8 -4l12 16q-50 26 -68 48q0 8 -8 8h-4zM441 743q4 -8 4 -12h8q37 61 76 104v4q0 8 -12 8q-55 -48 -68 -100zM1389 851h12v-4l-4 -8q12 0 12 -8l-8 -4q-6 0 -12 12v12zM193 831h8v-8q-8 0 -8 8zM241 815h8v-8h-8 v8zM225 807q7 -28 16 -28v-8h-4q-20 11 -20 32zM1597 799l4 -8l-12 -8l-4 8zM277 795q8 -1 8 -8l-8 -12q20 -1 20 -12h-4l-16 8q0 -4 -4 -4q0 4 -4 4l4 8v4h-16q1 8 8 8q0 -4 4 -4q1 8 8 8zM305 795q6 0 16 -20v-8q-6 0 -16 16v12zM1961 795l4 -8l-8 -4h-16q0 9 20 12z M581 787v-8q6 -20 56 -60h4q-35 43 -60 68zM201 783h12q0 -8 -8 -8h-4v8zM1597 775v-4q-38 -36 -40 -36h-8v8q23 32 48 32zM1613 771l4 -8q-21 -20 -32 -20l-4 8q21 20 32 20zM761 743q21 -60 28 -60h20q8 0 8 8v72h-4q-47 -14 -52 -20zM1409 763q8 -1 8 -8v-8q0 -8 -8 -8 q-6 0 -12 12q0 6 12 12zM853 755v-68q1 -8 8 -8h4q10 2 24 64v8zM321 751l4 -8l-4 -20l8 -4q0 10 8 20v4q0 8 -8 8h-8zM1325 751v-4h8v4h-8zM1377 751h8q0 -7 12 -20v-4q0 -8 -8 -8l-12 16v16zM689 715q21 -39 48 -60q6 0 16 16v8l-20 64h-8q-36 -23 -36 -28zM921 743 q0 -7 -24 -76l16 -12q8 3 48 56q0 4 -36 32h-4zM1365 747h4v-12h-4q-8 0 -8 8zM141 743q6 0 16 -16v-16h-8q-5 0 -16 24q1 8 8 8zM1293 739v-8h12q0 8 -8 8h-4zM1417 743h8v-8q-8 0 -8 8zM209 739l4 -8v-4h-20v8q2 0 16 4zM169 735h8v-4h-8v4zM1361 727h4q6 0 12 -12l-8 -4 q-8 0 -8 8v8zM241 723h8q8 -1 8 -8v-4q0 -8 -8 -8q-8 13 -8 20zM405 659l8 -12q-12 -12 -12 -56q7 -4 16 -4h4q0 61 28 128l-20 4q-9 0 -20 -56q-4 0 -4 -4zM1529 719h16v-4q-4 -8 -4 -12h-36v-4q28 0 28 -8v-4q0 -6 -12 -12q-4 0 -4 4l-32 -12q-8 4 -12 4q0 -6 -12 -12 q-6 0 -12 12v4q0 8 12 8l16 -4q14 0 24 32zM1325 711v-8q1 -8 8 -8h4v12q-4 0 -12 4zM1577 715l8 -12q-4 -12 -24 -12h-4q-6 0 -12 12q3 12 32 12zM649 707v-8q7 0 20 -12v4q0 6 -16 16h-4zM213 699h12v-8q0 -8 -8 -8l-4 8v8zM245 695h4q0 -8 -8 -8h-4q1 8 8 8zM133 691h16 v-8h-16v8zM1309 687q1 -8 8 -8v8h-8zM1409 679h12q0 -8 -8 -8h-4v8zM245 671h8q0 -8 -8 -8v8zM285 671l4 -8l-12 -8q-8 0 -8 8zM789 655q7 0 20 -44h8v56h-4q-24 -2 -24 -12zM225 663h4v-8h-4v8zM1345 663q6 0 12 -12v-8h-20v4q8 10 8 16zM1385 663h4v-8q-6 0 -16 -16h-4v8 q0 6 16 16zM1425 663h8v-8h-8v8zM1469 663q8 -1 8 -8v-4h-8v12zM745 639q3 0 28 -28h4q-12 40 -20 40q-6 0 -12 -12zM889 651q-8 -28 -24 -52v-8q13 8 40 48q0 6 -12 12h-4zM265 651h4v-8h-4v8zM1405 647q8 -1 8 -8q-7 0 -16 -24q4 0 4 -4q-12 -2 -28 -20h-4v24q1 8 36 32z M1489 647q0 -32 -56 -32l-8 12v8l24 4v-8h-8v-4h16v4l-4 8q7 4 36 8zM249 643h8v-4q0 -8 -8 -8t-8 8zM229 639q8 -4 12 -4v-4q0 -8 -8 -8l-4 8v8zM1409 623h4v-8h-4v8zM1413 607v-4l-4 -8q4 -8 4 -12l-8 -4l-8 16zM1457 587l4 -8q0 -8 -8 -8t-8 8v4q4 0 12 4zM177 583 q8 -1 8 -8v-4q0 -6 -12 -12q-8 0 -8 8v4q0 6 12 12zM1349 583h4q8 -1 8 -8h-12v8zM1377 579h4l-4 -8l4 -20h-4q-6 0 -12 12v4q0 6 12 12zM393 559q4 -22 4 -32q-8 -13 -8 -24q11 -52 20 -64q16 4 28 4q-16 68 -16 116v8h-20q-8 -1 -8 -8zM217 567h4q6 0 12 -12v-8h-4 q-6 0 -12 12v8zM293 559v-8h-8q1 8 8 8zM1393 559h8v-8h-8v8zM189 551q4 -56 16 -64v-8q0 -5 -20 -16l-16 12q0 -4 -4 -4l-4 8v8q20 11 20 16q0 4 4 12h-4l-24 -16h-12q-8 0 -8 8v4q0 4 4 4l-4 8l4 8l24 -12q6 0 20 24q-4 0 -4 4zM213 551q0 -4 4 -4q-6 -16 -12 -16v12 q1 8 8 8zM285 551v-8h-8q1 8 8 8zM785 547v-4q0 -6 32 -48q28 0 28 36h-24q-12 0 -36 16zM1909 551h8v-4h-8v4zM93 547q8 -1 8 -8q-8 -1 -8 -8q6 0 28 -28q0 -8 -8 -8q-32 14 -32 44zM1969 543q8 -1 8 -8l-8 -4v12zM2001 543h8v-12q-8 0 -8 8v4zM225 527h8v-12h-8v12z M149 519v-8h8v8h-8zM301 523h4v-12h-4q-8 0 -8 8zM1381 523h8v-4h-8v4zM1365 519h8q8 -1 8 -8q0 -8 -8 -8h-8v16zM1337 511v-8h4v8h-4zM1793 515h8v-8h-8v8zM1993 515h12v-8h-12v8zM265 511v-8q0 -4 -4 -4q8 -13 8 -20l-16 -8q-12 9 -12 36q21 4 24 4zM297 503q6 0 16 -16 v-8h-8v12l-12 -8q-8 0 -8 8q0 6 12 12zM1545 491l4 -8l-8 -4l-4 8zM213 487h12q0 -8 -8 -8h-4v8zM817 483l-12 -68v-4h32v4l-12 68h-8zM797 479v-8h4v8h-4zM1781 483h12v-4q0 -8 -8 -8h-12v4q1 8 8 8zM1841 483l8 -12q-4 -12 -24 -12l-8 12q0 8 24 12zM781 423v-8h8l8 52 q-10 0 -16 -44zM141 467q8 -1 8 -8v-8q-8 -10 -8 -20h-12q-8 0 -8 8q6 0 12 12h-8q0 6 16 16zM257 467h8v-8h-8v8zM1221 459q0 -6 -8 -16v-12h8q6 0 12 16q-4 8 -4 12h-8zM1393 463h4v-8h-4v8zM225 459h8q8 -1 8 -8v-8q0 -5 -36 -24h-8q-8 0 -8 8q16 6 36 32zM1513 459h8 q6 0 12 -12l-8 -4q-20 5 -20 12zM289 455h12v-8l-20 -4v4q1 8 8 8zM253 451h4q0 -6 8 -16q-23 -28 -28 -28q0 6 -8 16q6 0 24 28zM1781 451h8q8 -1 8 -8l-8 -4h-8q-8 0 -8 8zM1357 443h8v-8q-8 0 -8 8zM1545 443v-4q0 -10 -32 -20l-12 16l8 4l8 -4q26 8 28 8zM869 435v-8h4 v8h-4zM1461 431h4q6 0 20 -28q-5 -20 -12 -20h-4l-4 28q4 0 4 4q-8 0 -8 8v8zM149 423h16q6 0 12 -16q-15 -12 -24 -12l-12 16v4q1 8 8 8zM221 423h4v-8h-4v8zM273 423h4v-4q0 -8 -8 -8l-4 8zM421 395q2 0 24 -48q10 0 32 -44q4 0 4 -4q14 0 24 32q-56 88 -60 88 q-24 0 -24 -24zM1365 423q8 -1 8 -8h-8v8zM93 419h24q6 0 12 -12v-12q0 -8 -32 -12v-4q8 -1 8 -8q0 -8 -8 -8h-4q-8 0 -8 8v4l8 12q-10 0 -12 16q6 16 12 16zM1349 419h8v-12q-10 0 -20 -8h-4v8q6 0 16 12zM1197 411q0 -13 -56 -80v-4q1 -9 36 -24v-4h12q0 8 -8 8 q20 34 32 100l-8 4h-8zM253 411h4q11 -12 32 -16v-4q0 -8 -8 -8q-28 16 -28 20v8zM877 407l-4 -8q0 -84 12 -84q8 16 24 16v8q0 20 -32 68zM769 403q-10 -30 -36 -64l28 -16h12q12 70 12 76l-8 4h-8zM45 403l4 -8l-8 -4l-4 8zM1429 403h4v-8h-4v8zM801 391l-12 -72h40l20 4 l-4 48v12q0 8 -8 8h-36zM169 387h4q8 -1 8 -8v-4q0 -8 -8 -8q-6 0 -12 12q1 8 8 8zM229 383v-8h-8q1 8 8 8zM1401 383h8q8 -1 8 -8v-4q0 -8 -8 -8t-8 8v12zM285 379v-8h-8q1 8 8 8zM345 375v-4q1 -8 8 -8v4q0 8 -8 8zM1313 375v-12q8 0 8 8v4h-8zM117 363h8v-16h-8v16z M57 359h4q8 -1 8 -8v-12q0 -8 -8 -8q-16 6 -16 12q6 16 12 16zM201 355h8v-4h-8v4zM1349 355q28 -25 28 -28q-25 -8 -32 -8q0 4 -4 4q0 -16 -12 -16q-8 0 -8 8v4q0 4 4 4l-4 8q0 7 28 20v4zM1381 355h4q6 0 12 -12q0 -8 -8 -8h-4q-6 0 -12 12q1 8 8 8zM153 351h8q8 -1 8 -8 q0 -8 -8 -8t-8 8v8zM217 347h8v-4h-8v4zM1513 343q16 -23 16 -36h-4q-32 25 -32 28v4q13 0 20 4zM649 243v-4q12 0 12 4q33 0 92 -40l12 92q-2 13 -36 32h-4q-65 -54 -76 -84zM881 295l16 -92h8q0 25 88 44q-31 53 -68 76q-19 0 -44 -28zM321 319v-12h4q0 4 4 12h-8z M145 315l4 -8l-8 -4h-4v4q1 8 8 8zM765 203q4 0 4 -4q20 12 32 12h60q-8 100 -32 100h-16q-34 0 -44 -100zM1437 315h8q8 -1 8 -8q0 -8 -8 -8h-8q-8 0 -8 8q1 8 8 8zM353 299v-4h8v12q-8 -1 -8 -8zM505 283q10 -25 80 -76q11 0 28 36v4q0 35 -68 48q0 6 -12 12h-4 q-3 0 -24 -24zM1109 307q0 -8 -64 -32q-16 -27 -16 -36q28 -42 28 -48h12q92 67 92 84q-32 32 -52 32zM1633 291v-12h-16v8zM205 287q6 0 12 -12v-8h-4q-6 0 -16 16zM285 287h8q10 -16 16 -16v-4q-21 -28 -28 -28l4 -8h-4l-8 4q-6 -16 -12 -16h-8q0 6 -8 16q0 6 16 12l-4 8 v4q0 6 16 16q8 -4 12 -4q0 4 4 4l-4 8v4zM349 275l12 -8h8l8 4q-4 8 -4 12h-16q-8 -1 -8 -8zM1277 283v-8h8v8h-8zM621 279v-12h4q8 0 8 8l-8 4h-4zM1001 279q11 -20 16 -20q8 0 8 8v12h-24zM1269 267q1 -8 8 -8h4q0 8 -8 8h-4zM1461 271q8 -1 8 -8v-8q0 -6 -12 -12 q-8 0 -8 8v8q0 6 12 12zM1493 271h4q6 0 12 -12l-16 -12h-4q-8 0 -8 8v4q0 6 12 12zM173 267h8v-8q-8 0 -8 8zM329 255l8 -4h4v12h-4q-8 -1 -8 -8zM1585 267l4 -8l-8 -4l-4 8zM1305 259l4 -8l-8 -4h-4v4q1 8 8 8zM377 243v-8h16q0 8 -8 8h-8zM221 239h4q11 0 16 -40l-20 -4 v4l8 12q-8 13 -8 24v4zM397 231q0 -4 -4 -12l8 -4h8v4q0 6 -12 12zM1457 235q6 0 12 -12v-12q0 -8 -8 -8h-4q-6 0 -12 12v8q0 6 12 12zM381 227l-4 -8v-8q8 4 12 4v4q0 8 -8 8zM621 199v-16l80 -36q8 -1 8 -8q36 0 36 28v16q-31 44 -92 44h-8q-7 0 -24 -28zM901 179 q9 -44 24 -44q10 0 32 12q7 -4 16 -4q0 11 60 24q4 8 4 12q-24 48 -48 48h-20q-68 -24 -68 -48zM1537 215q8 -1 8 -8v-8h-8q-8 0 -8 8q1 8 8 8zM261 211h8q8 -1 8 -8v-4q0 -8 -8 -8t-8 8v12zM757 143q13 -8 24 -8h52q9 0 16 4q7 -4 16 -4q4 0 4 4l8 -4h4v4q-6 60 -60 60h-4 q-60 -6 -60 -56zM1245 195h8v-4h-8v4zM241 187h32q8 0 12 -24q-4 -17 -20 -24q0 -16 -8 -16l-4 8l12 20v8q-11 0 -24 28zM361 187h8q0 -4 4 -12l-8 -4h-4v16zM1265 183h4q8 -1 8 -8l-8 -4l-4 8v4zM1485 183h8v-12h-8v12zM301 171h4v-28q-8 0 -12 24zM341 171l4 -8v-4 q-4 0 -12 -4l-4 8zM97 167h4q6 0 16 -20q0 -12 -16 -12q-18 8 -20 16q0 6 16 16zM1277 167h4q6 0 12 -12q-5 0 -16 -20q-16 4 -28 4v12q7 16 28 16zM229 159h8v-4h-8v4zM137 151q8 -1 8 -8h-8v8zM221 147h4v-8h-4v8zM469 143v-8q4 0 12 -4v4q0 8 -8 8h-4zM313 139h12 q8 -1 8 -8l-8 -4h-12v12zM1653 139h8v-8h-8v8zM285 135h12v-4q0 -8 -8 -8h-4v12zM485 131v-8h4v8h-4zM133 131h12q0 -7 12 -20v-4h-4q-7 0 -20 24zM237 131l4 -8q-5 -20 -12 -20q-8 0 -8 8t12 8l-4 8zM353 131h8v-4q0 -6 -12 -12h-4v8q1 8 8 8zM1617 131h16q6 0 12 -12 q0 -6 -12 -12q-24 4 -24 12v4q1 8 8 8zM117 127l4 -8v-4h-12v4q1 8 8 8zM409 123h8q0 -8 -8 -8v8zM381 119h8v-4h-8v4zM1329 111h8v-8h-8v8zM413 107h4q20 -7 20 -20t-20 -40v-12h16v-8q0 -8 -8 -8h-4q-8 0 -8 12h-16l-12 -8l-8 16l-8 -4h-4v12q4 0 12 4l20 -12q8 0 8 8 l-12 8q0 11 32 24v4q-6 0 -12 12v12zM401 103v-24q0 -8 -8 -8q-8 8 -8 28q7 4 16 4zM281 99h4l8 -4q0 4 4 4l4 -8q-12 0 -12 -12h-12zM1105 95v-8h8v8h-8zM1161 95h8v-4h-8v4zM105 83h8q6 0 12 -12v-4q0 -8 -8 -8h-8q-6 0 -12 12v4q1 8 8 8zM605 79v-4l8 -12l-8 -4q0 8 -8 8 h-4q-8 -1 -8 -8l8 4h4l12 -8h4q8 0 8 8v8q0 8 -8 8h-8zM1177 71h8v-8h-8v8zM1001 55v-8h20v8h-20zM489 55h4v-8l-4 -8q7 -4 16 -4q0 -6 -16 -16q-20 5 -20 12v8h4q8 -4 12 -4l-4 8v4q1 8 8 8zM445 51l4 -8l-8 -4l-4 8zM877 47q0 -4 -4 -12l8 -4l4 16h-8zM817 35q15 0 24 -8 h4q0 6 -20 16q-8 -1 -8 -8zM1409 43q8 -1 8 -8q0 -8 -8 -8t-8 8q1 8 8 8zM769 31v-8h4v8h-4zM797 31v-12q6 0 12 12h-12zM305 31h8v-4h-8v4zM461 31l4 -8q0 -8 -8 -8l-4 8q1 8 8 8zM977 31h4v-8h-4v8zM1069 31q6 0 12 -12q-3 -14 -24 -24q-4 8 -4 12q9 24 16 24zM529 27v-8 h-8q1 8 8 8zM681 27h8v-12q0 -8 -8 -8h-4q1 8 8 8l-4 8v4zM777 23v-8h8q0 8 -8 8zM645 19h8v-4q-8 -10 -8 -16h-8v12q1 8 8 8zM745 19h4v-8h-4v8zM389 15h4v-8h-4v8zM521 11h16q8 -1 8 -8q-8 -18 -16 -20q-8 0 -8 8l8 12h-8q-8 -4 -12 -4q0 6 12 12zM1037 11q6 0 12 -12 q-8 0 -8 -24h-8v12q-13 0 -32 -16q-24 15 -24 20h4q4 0 4 -4q34 0 52 24zM1105 11h8v-4q0 -8 -8 -8t-8 8zM745 7q8 -16 8 -24q-8 -1 -8 -8v-16l12 8l4 -8q0 -6 -16 -16q-10 0 -16 44q8 18 16 20zM693 3q8 -1 8 -8l-8 -4v12zM437 -1h12q0 -8 -8 -8h-4v8zM497 -1h12 q0 -8 -8 -8h-4v8zM577 -5h8v-8q-8 0 -8 8zM765 -5h4q8 -4 12 -4q0 4 4 4l12 -20q-5 -20 -12 -20h-4v24q0 8 -16 8v8zM913 -5q6 0 12 -12h-8q-8 4 -12 4q1 8 8 8zM365 -9h8v-4h-8v4zM941 -9h8v-8h-8v8zM1057 -9h4v-8h-4v8zM377 -13h8v-4h-8v4zM705 -13h4v-4q0 -4 -4 -4l4 -8 v-4h-4q-8 0 -8 8v4q1 8 8 8zM621 -17h8v-12h-8v12zM665 -17h12q8 -1 8 -8v-4h-20v12zM577 -21h4q8 -1 8 -8v-20q0 -8 -8 -8q-4 8 -4 12l4 8q-4 7 -4 16zM645 -25v-12q-8 0 -8 8zM521 -29h8v-4q-12 -10 -12 -16h-8q-8 0 -8 8zM821 -37h4v-8h-4v8zM993 -37h8v-12h-8v12z M417 -41h8v-4h-8v4zM1433 -41l4 -8l-8 -4l-4 8zM841 -45h8v-4h-8v4zM409 -53q8 -1 8 -8v-4h-8q-8 0 -8 8zM713 -53h12v-8h-12v8zM541 -57h8v-4h-8v4zM801 -57h4v-8h-4v8zM873 -57h4v-8h-4v8zM613 -61l4 -8h-12q1 8 8 8zM1401 -61q8 -1 8 -8l-8 -4v12zM245 -73l4 -8 q0 -8 -8 -8l-4 8q1 8 8 8zM953 -73h8v-4h-8v4zM573 -85q8 -1 8 -8v-8h-16v8q1 8 8 8zM345 -93h4v-12h-4q-8 0 -8 8zM393 -105h4q16 -8 16 -24l-8 -4h-8q-6 0 -16 16q0 6 12 12zM825 -105h4v-8h-4v8zM481 -109h8q6 0 12 -12v-8q0 -8 -8 -8q-4 0 -4 4l-8 -4q-6 0 -12 12v4 q0 6 12 12zM569 -109h20q6 0 12 -12v-4q-8 -16 -24 -16q-12 13 -12 20q4 8 4 12zM369 -113q8 -1 8 -8v-8q0 -8 -8 -8q-6 0 -12 12q0 6 12 12zM749 -113h8v-8h-8v8zM733 -121q8 -1 8 -8l-8 -4q-8 0 -8 8zM1041 -129h8v-8h-8v8zM453 -133q6 0 12 -12v-16h-12q-8 0 -8 8v12 q1 8 8 8zM1221 -137l4 -8q0 -8 -8 -8t-8 8zM537 -141h8q6 0 12 -12v-4h-28v8q1 8 8 8zM905 -141l8 -12v-16h-12q-6 0 -12 12v12q2 0 16 4zM289 -145q8 -1 8 -8q0 -8 -8 -8l-8 12zM1189 -149h4v-8h-4v8zM309 -157v-4l8 4h4q0 -6 -16 -16l-4 8q1 8 8 8zM277 -161q8 -1 8 -8 l-8 -4h-8v4q1 8 8 8zM429 -161q32 -10 32 -16l-4 -8l-16 8q-8 -4 -12 -4l-8 12q1 8 8 8zM517 -173l4 -8v-4h-12v4q1 8 8 8zM573 -173h4q8 -1 8 -8v-4q0 -6 -16 -12l-4 8v8q1 8 8 8zM717 -177h4q8 -1 8 -8v-4q0 -8 -8 -8h-4q-8 0 -8 8v4q1 8 8 8zM533 -185h8q8 -1 8 -8 q0 -8 -8 -8t-8 8v8zM505 -193q8 -1 8 -8v-4q0 -6 -12 -12h-12v8q0 6 16 16zM277 -217h4q8 -1 8 -8q0 -8 -8 -8h-4q-8 0 -8 8q1 8 8 8zM517 -253h4q8 -1 8 -8q0 -8 -8 -8h-4q-8 0 -8 8q1 8 8 8zM1073 -261h8q8 -1 8 -8l-8 -12q-16 6 -16 12q1 8 8 8zM1097 -305l8 -12v-4 q0 -6 -12 -12h-4q-8 0 -8 8q11 20 16 20z" />
<glyph unicode="1" horiz-adv-x="788" d="M401 0v1001q0 111 -53 169.5t-155 58.5h-144v260h144q225 0 345.5 -128t120.5 -360v-1001h-258z" />
<glyph unicode="2" horiz-adv-x="1690" d="M129 0v436q0 217 116.5 323.5t342.5 106.5h538q86 0 137.5 47.5t51.5 133.5t-50.5 134t-138.5 48h-985v260h985q111 0 196 -32t143.5 -87t88 -132t29.5 -167q0 -92 -31.5 -170t-90 -134t-142.5 -88t-191 -32h-540q-213 0 -213 -192v-195h1184v-260h-1430z" />
<glyph unicode="3" horiz-adv-x="1694" d="M94 0v260h957q123 0 200.5 49t77.5 148q0 92 -57.5 141t-167.5 49h-658v219h639q111 0 164.5 41t53.5 140q0 104 -70 144t-199 40h-934v258h985q109 0 197 -24.5t151.5 -73t97.5 -121t34 -166.5q0 -141 -60.5 -216t-144.5 -102q102 -32 167.5 -118t65.5 -217 q0 -103 -33.5 -186t-96 -141t-151.5 -91t-198 -33h-1020z" />
<glyph unicode="4" horiz-adv-x="1731" d="M1204 0v397h-616q-236 0 -363 115t-127 362v615h260v-612q0 -129 56.5 -179.5t173.5 -50.5h616v842h260v-842h215v-250h-215v-397h-260z" />
<glyph unicode="5" horiz-adv-x="1812" d="M129 0v260h1116q105 0 160 53.5t55 141.5q0 96 -55 144t-160 48h-1116v842h1505v-260h-1237v-363h848q225 0 343 -106.5t118 -323.5q0 -94 -28.5 -174t-86 -138t-143.5 -91t-203 -33h-1116z" />
<glyph unicode="6" horiz-adv-x="1786" d="M762 0q-158 0 -283 47t-213 141.5t-134 237.5t-46 334q0 190 46 327.5t134 226.5t213 132t283 43h854v-260h-854q-178 0 -281.5 -85t-128.5 -276h873q213 0 332.5 -100t119.5 -315q0 -217 -120.5 -335t-331.5 -118h-463zM350 647q21 -203 125.5 -295t286.5 -92h438 q111 0 169 52.5t58 150.5q0 184 -227 184h-850z" />
<glyph unicode="7" horiz-adv-x="1548" d="M102 0l1018 1229h-1030v260h1251q89 0 126.5 -36t37.5 -87q0 -29 -9 -57.5t-40 -65.5l-1016 -1243h-338z" />
<glyph unicode="8" horiz-adv-x="1839" d="M584 0q-109 0 -198 31.5t-151.5 91t-96.5 142.5t-34 186q0 131 66 217t168 118q-84 27 -144.5 102t-60.5 216q0 94 34 166.5t97.5 121t151.5 73t196 24.5h615q108 0 197 -24.5t151.5 -73t97.5 -121t35 -166.5q0 -72 -16.5 -125t-45 -91t-66.5 -63.5t-79 -38.5 q103 -32 168.5 -118t65.5 -217q0 -103 -34 -186t-96.5 -142.5t-151.5 -91t-198 -31.5h-671zM594 647q-111 0 -169 -50t-58 -142q0 -99 78.5 -147t201.5 -48h545q123 0 202 48t79 147q0 92 -58.5 142t-169.5 50h-651zM662 1231q-130 0 -198.5 -40t-68.5 -144q0 -99 53.5 -140 t163.5 -41h615q110 0 163.5 41t53.5 140q0 104 -68.5 144t-197.5 40h-516z" />
<glyph unicode="9" horiz-adv-x="1763" d="M254 0v260h747q168 0 270.5 76t133.5 250h-889q-203 0 -316.5 103.5t-113.5 334.5q0 98 29.5 183t86 147.5t136.5 98.5t178 36h485q156 0 282 -47t213 -141.5t134 -237.5t47 -334q0 -190 -47 -328.5t-134 -227.5t-213 -131t-282 -42h-747zM350 1010q0 -107 55.5 -157 t153.5 -50h856q-14 221 -118.5 322.5t-295.5 101.5h-442q-98 0 -153.5 -56.5t-55.5 -160.5z" />
<glyph unicode=":" horiz-adv-x="537" d="M408 123q0 -60 -41 -99.5t-101 -39.5q-59 0 -98 39.5t-39 99.5q0 59 39 99t98 40q60 0 101 -40t41 -99zM408 795q0 -60 -41 -99t-101 -39q-59 0 -98 39t-39 99q0 59 39 100t98 41q60 0 101 -41t41 -100z" />
<glyph unicode=";" horiz-adv-x="537" d="M268 657q-59 0 -98 40t-39 100q0 61 39 100t98 39q62 0 101 -39t39 -100q0 -60 -39 -100t-101 -40zM139 -242v533h262l-102 -533h-160z" />
<glyph unicode="&#x3c;" horiz-adv-x="1413" d="M199 662q-33 14 -51.5 37.5t-18.5 58.5q0 28 18.5 55t51.5 41l1085 455v-187l-934 -364l934 -369v-184z" />
<glyph unicode="=" horiz-adv-x="1413" d="M129 946v172h1155v-172h-1155zM129 393v172h1155v-172h-1155z" />
<glyph unicode="&#x3e;" horiz-adv-x="1413" d="M129 205v184l934 369l-934 364v187l1085 -455q33 -14 51.5 -41t18.5 -55q0 -35 -18.5 -58.5t-51.5 -37.5z" />
<glyph unicode="?" horiz-adv-x="1589" d="M571 647q-96 0 -96 -86v-82h-246v88q0 138 84 218.5t258 80.5h502q86 0 137.5 47.5t51.5 133.5t-50.5 134t-138.5 48h-983v260h983q111 0 196 -32t142 -87t87 -132t30 -167q0 -92 -31 -170t-89 -134t-142 -88t-189 -32h-506zM356 -16q-59 0 -99 38.5t-40 102.5 q0 59 40 98t99 39q62 0 101 -39t39 -98q0 -64 -39 -102.5t-101 -38.5z" />
<glyph unicode="@" horiz-adv-x="1706" d="M836 0q-164 0 -301.5 52t-236.5 147.5t-155.5 229.5t-56.5 298q0 162 57.5 301t157.5 241.5t237.5 160t297.5 57.5h741v-1088h-774q-66 0 -120 27t-92 73t-59.5 108.5t-21.5 133.5q0 70 20.5 131.5t59.5 107.5t92 71.5t121 25.5h401v-514h178v733h-546q-129 0 -231.5 -41 t-175.5 -113.5t-110.5 -174t-37.5 -224.5q0 -122 37.5 -223.5t109.5 -175.5t175.5 -115t232.5 -41h741v-188h-741zM1034 930h-184q-78 0 -122 -49.5t-44 -135.5q0 -77 46 -129.5t120 -52.5h184v367z" />
<glyph unicode="A" horiz-adv-x="2025" d="M672 586h661l-332 557zM547 375l-221 -375h-297l856 1425q22 39 53 61.5t74 22.5t72.5 -22.5t52.5 -61.5l858 -1425h-314l-223 375h-911z" />
<glyph unicode="B" horiz-adv-x="1825" d="M127 0v1489h1090q108 0 197 -24.5t152.5 -73t98.5 -121t35 -166.5q0 -72 -16.5 -125t-45 -91t-66.5 -63.5t-79 -38.5q102 -32 167.5 -118t65.5 -217q0 -103 -33.5 -186t-96 -142.5t-151.5 -91t-198 -31.5h-1120zM575 647v219h644q110 0 163.5 41t53.5 140q0 59 -22.5 95 t-64.5 55.5t-100.5 25.5t-130.5 6h-731v-971h754q69 0 128.5 10.5t102.5 34t66.5 60t23.5 92.5q0 92 -57 142t-168 50h-662z" />
<glyph unicode="C" horiz-adv-x="1698" d="M809 0q-156 0 -288 58.5t-229 159.5t-151.5 240.5t-54.5 301.5q0 164 54.5 299t151.5 230t229 147.5t288 52.5h807v-260h-807q-100 0 -185 -36t-146.5 -99.5t-96.5 -151.5t-35 -194q0 -105 35 -195t96.5 -154.5t146.5 -101.5t185 -37h807v-260h-807z" />
<glyph unicode="D" horiz-adv-x="1800" d="M129 0v1489h862q158 0 291 -53.5t229.5 -149.5t150.5 -230t54 -296t-54 -301.5t-150.5 -240.5t-229.5 -159.5t-291 -58.5h-862zM991 260q101 0 186 37t147 101.5t97 154.5t35 195q0 104 -35 193t-97 152.5t-147 99.5t-186 36h-604v-969h604z" />
<glyph unicode="E" horiz-adv-x="1554" d="M387 647v-387h1073v-260h-1331v1489h1329v-260h-1071v-363h1016v-219h-1016z" />
<glyph unicode="F" horiz-adv-x="1444" d="M387 616v-616h-258v1489h1264v-260h-1006v-385h944v-228h-944z" />
<glyph unicode="G" horiz-adv-x="1819" d="M809 0q-156 0 -288 58.5t-229 159.5t-151.5 240.5t-54.5 301.5q0 164 54.5 299t151.5 230t229 147.5t288 52.5h807v-260h-807q-100 0 -185 -36t-146.5 -99.5t-96.5 -151.5t-35 -194q0 -105 35 -195t96.5 -154.5t146.5 -101.5t185 -37h637v387h-672v219h934v-866h-899z " />
<glyph unicode="H" horiz-adv-x="1716" d="M389 872h938v617h260v-1495h-260v647h-938v-647h-260v1495h260v-617z" />
<glyph unicode="I" horiz-adv-x="547" d="M143 0v1489h260v-1489h-260z" />
<glyph unicode="J" horiz-adv-x="1450" d="M49 0v260h545q260 0 374.5 100.5t114.5 317.5v811h260v-811q0 -346 -180 -512t-569 -166h-545z" />
<glyph unicode="K" horiz-adv-x="1792" d="M1356 0l-834 655q-35 27 -44 52.5t-9 56.5q0 35 12.5 61.5t53.5 57.5l788 606h399l-974 -727l1005 -762h-397zM129 0v1489h260v-1489h-260z" />
<glyph unicode="L" horiz-adv-x="1448" d="M129 0v1489h260v-1229h1002v-260h-1262z" />
<glyph unicode="M" horiz-adv-x="2284" d="M1982 0l-284 1047l-422 -969q-23 -47 -54.5 -72.5t-78.5 -25.5q-92 0 -133 98l-420 969l-285 -1047h-256l383 1401q27 106 129 106q41 0 77 -22.5t54 -65.5l459 -1052l459 1052q37 88 125 88q94 0 125 -106l381 -1401h-259z" />
<glyph unicode="N" horiz-adv-x="1788" d="M371 1090v-1090h-248v1352q0 71 36 113t97 42q29 0 55.5 -12t55.5 -41l1050 -1042v1089h248v-1364q0 -74 -36 -114.5t-93 -40.5q-63 0 -119 55z" />
<glyph unicode="O" horiz-adv-x="1982" d="M809 0q-156 0 -288 58.5t-229 159.5t-151.5 240.5t-54.5 301.5q0 164 54.5 299t151.5 230t229 147.5t288 52.5h362q162 0 296.5 -53.5t230.5 -149.5t149.5 -230t53.5 -296t-54.5 -301.5t-152 -240.5t-230.5 -159.5t-293 -58.5h-362zM1171 260q103 0 189 37t148.5 101.5 t97 154.5t34.5 195q0 104 -34.5 193t-97 152.5t-148.5 99.5t-189 36h-362q-100 0 -185 -36t-146.5 -99.5t-96.5 -151.5t-35 -194q0 -105 35 -195t96.5 -154.5t146.5 -101.5t185 -37h362z" />
<glyph unicode="P" horiz-adv-x="1776" d="M578 414v252h598q137 0 213.5 77.5t76.5 204.5q0 129 -76.5 205t-213.5 76h-789v-1229h-258v1489h1047q129 0 230 -38t171 -106.5t106.5 -167t36.5 -221.5q0 -120 -36.5 -219.5t-106.5 -171t-171 -111.5t-230 -40h-598z" />
<glyph unicode="Q" horiz-adv-x="1982" d="M1628 0l-102 88q-78 -41 -167 -64.5t-188 -23.5h-362q-156 0 -288 58.5t-229 159.5t-151.5 240.5t-54.5 301.5q0 164 54.5 299t151.5 230t229 147.5t288 52.5h362q162 0 296.5 -53.5t230.5 -149.5t149.5 -230t53.5 -296q0 -164 -54.5 -302.5t-152.5 -240.5l280 -217h-346 zM870 614h344l277 -233q70 65 109.5 159.5t39.5 207.5q0 104 -34.5 193t-97 152.5t-148.5 99.5t-189 36h-362q-100 0 -185 -36t-146.5 -99.5t-96.5 -151.5t-35 -194q0 -105 35 -195t96.5 -154.5t146.5 -101.5t185 -37h362q64 0 129 16z" />
<glyph unicode="R" horiz-adv-x="1886" d="M1511 0l-376 414h-557v229h620q141 0 213 77t72 222t-75 216t-210 71h-811v-1229h-258v1489h1069q127 0 227.5 -38t170 -108.5t106.5 -171t37 -225.5q0 -186 -81 -312t-226 -181l448 -453h-369z" />
<glyph unicode="S" horiz-adv-x="1802" d="M129 0v260h1116q105 0 161 53.5t56 141.5q0 96 -56 139t-161 43h-684q-104 0 -189 37t-143.5 93t-90.5 134t-32 170q0 90 30 167t88.5 132t144.5 87t196 32h1069v-260h-1069q-90 0 -139 -48t-49 -134t50 -128.5t136 -42.5h682q228 0 345.5 -111.5t117.5 -328.5 q0 -94 -28.5 -174t-86 -138t-144.5 -91t-204 -33h-1116z" />
<glyph unicode="T" horiz-adv-x="1475" d="M606 0v1229h-565v260h1391v-260h-566v-1229h-260z" />
<glyph unicode="U" horiz-adv-x="1821" d="M1460 1489h254v-832q0 -172 -45 -300t-141 -212t-249 -124.5t-370 -40.5q-215 0 -367.5 40.5t-248.5 124.5t-141.5 212t-45.5 300v832h269v-832q0 -112 27.5 -192t90 -131t167 -74.5t258.5 -23.5q153 0 257.5 23.5t167 74.5t90 131t27.5 192v832z" />
<glyph unicode="V" horiz-adv-x="2025" d="M29 1489h317l676 -1147l674 1147h299l-858 -1426q-23 -38 -53.5 -60.5t-71.5 -22.5q-43 0 -74 22.5t-53 60.5z" />
<glyph unicode="W" horiz-adv-x="2597" d="M1298 498l-231 -437q-23 -41 -57.5 -61t-75.5 -20q-90 0 -135 81l-770 1428h311l602 -1145l225 406l-387 739h314l575 -1145l606 1145h291l-770 -1428q-22 -41 -58 -61t-77 -20t-76 20t-57 61z" />
<glyph unicode="X" horiz-adv-x="2048" d="M1626 0l-625 608l-618 -608h-338l799 774l-742 715h359l567 -551l559 551h338l-741 -715l807 -774h-365z" />
<glyph unicode="Y" horiz-adv-x="1896" d="M817 0v565l-790 924h350l579 -686l582 686h332l-793 -924v-565h-260z" />
<glyph unicode="Z" horiz-adv-x="1642" d="M229 0q-59 0 -103 34t-44 99q0 57 53 111l989 997h-1024v248h1303q57 0 102 -34t45 -99q0 -58 -53 -111l-989 -997h1036v-248h-1315z" />
<glyph unicode="[" horiz-adv-x="682" d="M203 -182v1874h350v-170h-180v-1538h180v-166h-350z" />
<glyph unicode="\" horiz-adv-x="911" d="M711 0l-691 1489h173l698 -1489h-180z" />
<glyph unicode="]" horiz-adv-x="682" d="M129 -182v166h178v1538h-178v170h350v-1874h-350z" />
<glyph unicode="^" horiz-adv-x="1145" d="M840 614l-267 674l-270 -674h-174l350 824q15 32 37.5 50.5t56.5 18.5q31 0 57.5 -18.5t41.5 -50.5l344 -824h-176z" />
<glyph unicode="_" horiz-adv-x="1368" d="M0 -330v121h1384v-121h-1384z" />
<glyph unicode="`" horiz-adv-x="741" d="M109 1694v161l524 -157v-117z" />
<glyph unicode="a" horiz-adv-x="1165" d="M1026 1149q45 0 61 -63q-46 -386 -102 -702q5 -64 10 -71q-25 -259 -66 -259q-33 -32 -92 -32q-65 0 -102 67q-110 117 -260 117q-240 -28 -240 -67q-111 -130 -153 -130q0 -9 -36 -9h-10q-36 23 -36 67q23 143 281 380q257 298 581 599q33 0 72 67q43 36 92 36zM413 353 v-4l51 4h102q114 0 235 -76q87 457 87 577q-121 -115 -357 -376q-51 -43 -118 -125zM582 523h10v-13q-10 0 -10 9v4z" />
<glyph unicode="b" horiz-adv-x="1274" d="M616 870q50 -26 117.5 -54t136 -60.5t128 -68.5t92 -76t28.5 -85t-61 -96q-47 -41 -134 -88t-193.5 -92t-221.5 -87t-219.5 -72t-187.5 -45t-124 -9q15 63 70 101t131 64.5t159 45t152 43.5q-20 12 -42.5 17t-28.5 28q8 43 14 121t11.5 171t8.5 193.5t5 191.5t4 163.5 t2 109.5q-76 -24 -148.5 -52t-128.5 -73q-41 8 -64.5 32t-27.5 71q68 45 161 86t200.5 70.5t221.5 44t220.5 4t199.5 -47.5t158 -110q2 -29 8.5 -54.5t2.5 -60.5q-62 -68 -136.5 -114t-157.5 -80.5t-173 -65.5t-183 -66zM580 1323q4 -23 7 -62.5t4 -87t1 -96.5v-92 q74 33 151.5 60.5t153.5 58.5t142.5 68.5t119.5 91.5q-65 43 -130.5 62.5t-135.5 22.5t-147.5 -5.5t-165.5 -20.5zM500 303q69 31 149 62.5t149.5 63.5t118 63.5t54.5 64.5q6 35 -35 60.5t-103.5 45t-132 37t-120.5 33.5q-2 -65 -2 -126.5t-7.5 -116t-23 -101.5t-47.5 -86z " />
<glyph unicode="c" horiz-adv-x="1212" d="M1006 1077h47q32 0 48 -48q0 -45 -86 -85q-264 -81 -300 -110q-1 -7 -210 -95q-274 -139 -333 -334v-38q0 -97 138 -162q43 -19 167 -19q67 0 471 48q48 -12 48 -48q0 -91 -57 -91q-280 -90 -515 -90q-17 -5 -90 -5q-202 0 -320 243q-14 39 -14 72v23q0 141 124 305 q144 153 376 258q408 176 506 176zM1063 52h9l-5 -47h-9z" />
<glyph unicode="d" horiz-adv-x="1695" d="M814 1352q485 0 712 -229q70 -107 70 -211q0 -115 -175 -254q-218 -136 -734 -367q-211 -88 -262 -131q-66 -10 -327 -160h-43q-45 0 -55 65q0 106 298 218q700 313 996 469q108 88 131 138q0 80 -73 146q-68 57 -204 98q-190 51 -363 51q-185 0 -185 -15 q-201 -410 -266 -610l-32 -98l3 -26q-14 -77 -51 -160q-29 -25 -65 -25q-65 9 -65 72v22q0 198 287 774q14 27 14 33h-3q-124 -25 -186 -54v-15q0 -59 -51 -80q-2 0 -21 -4q-80 42 -80 99v14q0 111 258 182q260 58 472 58z" />
<glyph unicode="e" horiz-adv-x="1409" d="M1182 1126h19q50 0 74 -46v-56q0 -85 -698 -158q-22 -22 -130 -261q549 47 726 47h9q19 -3 19 -19v-37q0 -90 -670 -112q-28 -9 -131 -9q-37 -70 -65 -233l28 -56q445 65 866 65q41 0 56 -46q0 -93 -159 -93q-547 0 -1042 -112q-84 11 -84 37v28q7 75 65 75v46 q0 112 65 270q-40 0 -56 37v56q0 23 112 56l112 223q-83 0 -93 38v46q0 79 167 103z" />
<glyph unicode="f" horiz-adv-x="1360" d="M1370 1124q-29 -24 -75 -20t-103 19.5t-124 31.5t-134 16q-66 0 -146.5 -7t-165.5 -26.5t-170 -53t-159 -87.5q-23 -63 -31 -108t-4 -105q53 9 132 18t172 13t194.5 4t199 -10t184.5 -31.5t150 -56.5q-61 -53 -139 -67.5t-166 -12.5t-184 8t-197 -4q-86 -10 -177 -32.5 t-183 -34.5q-21 -66 -21 -152t-5 -168t-28.5 -145.5t-91.5 -83.5q-59 96 -88.5 217t-33 249t21.5 253.5t77 231t131 182.5t183 108q154 39 317.5 52t329.5 -22q47 -10 102.5 -20t103.5 -28.5t83 -48t45 -79.5z" />
<glyph unicode="g" horiz-adv-x="2299" d="M1266 1409l18 -27v-27q0 -57 -312 -124q-722 -305 -722 -767q0 -285 410 -330h45q523 0 1070 383l62 63v9q-387 44 -678 44h-267q-18 0 -18 18v18q36 98 348 98q936 -32 936 -107v-18q-385 -419 -1159 -597q-227 -36 -402 -45q-500 0 -597 339v116q0 384 589 749 q452 205 677 205z" />
<glyph unicode="h" horiz-adv-x="1727" d="M720 746q0 5 -5 5q229 419 266 505q11 22 11 62v34q-15 29 -51 29q-79 0 -113 -63q0 -6 6 -17q0 -92 -238 -476q-36 -119 -114 -119q-476 -76 -476 -91v-22q2 -12 28 -23l465 79v-5l-346 -613q24 -22 46 -22h11q109 0 153 130l318 544q480 80 493 85q0 -5 6 -5 q-307 -590 -386 -800q19 -11 34 -11h23q110 0 141 125q110 248 358 720q255 38 255 62v17q0 14 -23 17q-31 0 -193 -28q0 5 -5 5l323 596q-19 11 -34 11h-17q-121 0 -165 -142q-162 -263 -277 -504q-37 0 -494 -85z" />
<glyph unicode="i" horiz-adv-x="806" d="M643 993q58 -6 58 -29v-29q-325 -471 -341 -633l-87 -263q-88 -39 -156 -39h-88q-24 0 -29 39q0 163 273 691q153 263 292 263h78z" />
<glyph unicode="j" horiz-adv-x="1706" d="M1710 1337q41 -22 48 -62t-29 -85q-109 -6 -194 -9t-158.5 -4t-142.5 -4.5t-144.5 -8.5t-162.5 -14t-200 -26q43 -75 108.5 -153t135 -159t131 -166t94.5 -176t28 -189.5t-71 -204.5q-147 -35 -283.5 -37t-270.5 2t-268 6t-276 -22q-6 34 -17 49.5t-22.5 25t-19.5 19.5 t-6 37q26 37 110 51t197 17t240 -1t240.5 -5t198.5 6t111 32q-8 106 -39.5 189t-77.5 152t-101.5 128t-111 118.5t-106.5 124t-86 144.5q-80 -12 -168 -20.5t-155.5 1t-104.5 42t-16 104.5q35 27 70.5 38t72.5 13t75 0t75 0q123 4 243.5 14.5t238.5 19.5t231.5 14t224.5 -1 q45 -2 98 -7t103.5 -8t92.5 0t64 15z" />
<glyph unicode="k" horiz-adv-x="1415" d="M1460 1427q-6 -36 -26.5 -49.5t-44 -19.5t-42 -16.5t-18.5 -43.5q-106 -36 -207.5 -98.5t-198 -138.5t-188.5 -156t-182 -149q63 -80 121.5 -167t117 -173t121 -169t136.5 -157q-13 -22 -19 -26.5t-12 -1t-15.5 5.5t-27.5 -9q-182 99 -302 259.5t-202 359.5 q-65 -47 -111.5 -126t-86.5 -170t-81.5 -183.5t-97.5 -165.5q-47 -4 -68.5 16.5t-45.5 40.5q36 143 64 305t51.5 322t44 306t40.5 259q51 12 71.5 -1t43.5 -40q-2 -92 -3 -171t-6 -148.5t-16.5 -134t-31.5 -130.5q112 109 235 225.5t261 226.5t293 203t333 154 q29 -4 51.5 -8t48.5 -31z" />
<glyph unicode="l" horiz-adv-x="1206" d="M733 1397q-47 -172 -125 -311.5t-165 -267.5t-173 -258t-147 -284q70 -53 152.5 -69.5t175 -11t188.5 26t194.5 40t193.5 31.5t183 0q-39 -49 -103.5 -87t-141 -66.5t-157.5 -48t-151.5 -32t-125 -17.5t-76.5 -7h-89.5t-117 7t-127 22.5t-115.5 44.5q-35 55 -28.5 142 t40 190.5t90 219t120 227t129 214t118.5 181.5t88 127t37 54q29 2 49.5 -2t34.5 -14t25.5 -23.5t23.5 -27.5z" />
<glyph unicode="m" horiz-adv-x="1711" d="M1447 965h57q82 0 82 -131q0 -50 -204 -687q-36 -139 -131 -139q0 -8 -33 -8h-49q-44 0 -57 33v24q0 63 229 695h-8q-96 -27 -409 -335q-70 -131 -237 -131h-8q-44 0 -58 33v16q49 226 82 319h-8q-150 -54 -491 -409q-73 -16 -106 -16h-41q-57 0 -57 49q42 234 302 613 q78 33 139 33q82 -10 82 -33v-24q0 -20 -73 -148q259 164 408 164q115 0 115 -164q267 205 474 246z" />
<glyph unicode="n" horiz-adv-x="1565" d="M1346 999q105 0 105 -84v-32q0 -89 -231 -452q-53 -167 -53 -294v-53q-70 -84 -252 -84q-63 11 -63 32v63q0 326 315 746h-10q-182 -27 -537 -357q-298 -337 -578 -337h-10q-16 0 -32 32q0 243 263 589q95 31 158 31h94q21 -3 21 -21v-31l-105 -158v-11q418 359 841 421 h74z" />
<glyph unicode="o" horiz-adv-x="1529" d="M968 1012h22q391 -56 391 -131q36 0 44 -141q0 -434 -653 -696q-162 -44 -337 -44h-22q-413 0 -413 261q0 304 511 620q300 131 457 131zM326 315v-10q0 -131 218 -174h54q230 0 468 402q0 28 33 120q-56 206 -207 206q-205 -22 -424 -250q-142 -188 -142 -294z" />
<glyph unicode="p" horiz-adv-x="1100" d="M162 580q-10 -56 -18.5 -124.5t-14.5 -140t-13 -142.5t-18 -130q-51 6 -76.5 39t-37 80t-11.5 101v104q0 43 6.5 117.5t15.5 164.5t18.5 186.5t16.5 181.5t10 150.5t-3 94.5q57 104 161.5 154t225.5 54.5t245 -32.5t221 -106.5t153.5 -166t41.5 -211.5 q-10 -94 -58 -160.5t-120.5 -111.5t-164 -69.5t-190.5 -35t-199.5 -8.5t-190.5 11zM948 1028q-30 90 -108 153.5t-180.5 95.5t-218 29t-222.5 -44q-2 -31 -12 -98.5t-20.5 -148.5t-18.5 -164t-6 -146q47 10 121.5 12t158.5 8t171 19.5t159 46t120 89t56 148.5z" />
<glyph unicode="q" horiz-adv-x="1610" d="M1155 276q64 -92 154 -156.5t182 -127.5q-4 -25 -1 -48.5t9 -58.5q-129 47 -242.5 125t-203.5 189q-84 -39 -185.5 -80t-213 -61.5t-230.5 -8.5t-238 82q-112 80 -157 185.5t-41 220t51 233.5t119.5 227.5t164 199.5t183.5 151q117 77 235.5 98.5t235.5 -31.5 q12 -22 26.5 -41.5t25.5 -42t16.5 -51.5t-1.5 -70q46 21 106 24t122.5 -7t120 -33t98.5 -53q74 -58 100.5 -124.5t19.5 -138t-42 -143t-83 -139.5t-103.5 -126t-103.5 -101t-83 -68t-41 -25zM147 711q-26 -82 -25 -171t34.5 -167t102.5 -133.5t179 -67.5q72 -8 138.5 1 t128 29.5t119 48.5t110.5 58q-45 43 -83 90t-40 131q51 25 87 12.5t63.5 -41t50 -64.5t49.5 -58q49 33 106.5 76t111.5 93t100 105.5t73 112.5t28 117.5t-32 117.5q-51 89 -116.5 110.5t-137.5 14t-145.5 -24t-139.5 -1.5q19 26 45.5 44.5t49.5 37.5q-35 -8 -51.5 5 t-23.5 35.5t-10.5 49t-9.5 49.5q-45 12 -135 -10.5t-199.5 -93t-223 -194.5t-204.5 -312z" />
<glyph unicode="r" horiz-adv-x="1368" d="M944 1186q206 0 257 -106q20 -98 20 -126v-20q0 -140 -363 -389q-143 -94 -257 -136v-5q213 -44 560 -172q10 -23 10 -50q-34 -71 -101 -71h-10q-19 0 -540 126q-163 0 -242 101q-73 -209 -132 -298q-75 -40 -90 -40h-6q-26 0 -50 30v15q0 150 212 520q68 140 146 263 q-15 0 -25 45v15q0 180 591 298h20zM560 934l5 -26v-5q0 -55 -151 -277q-56 -108 -56 -116h5q302 56 439 181q248 166 248 278q0 45 -152 45h-50q-123 -1 -288 -80z" />
<glyph unicode="s" horiz-adv-x="1368" d="M1051 1066q159 0 185 -97v-15q-40 -53 -53 -53q-18 0 -136 14q-311 -34 -594 -112q120 -105 448 -190l189 -82q0 -11 39 -49q18 -24 25 -59q0 -176 -546 -262q-390 -78 -530 -161h-5q-73 19 -73 63q27 98 78 98q78 53 258 97q24 0 24 15l20 -5q483 98 550 146 q-331 108 -487 180q-185 94 -185 209q0 128 224 166q381 97 569 97zM1071 837q10 -1 10 -10v-4q-10 0 -10 9v5zM1105 784l5 -10l-10 -5l-5 10z" />
<glyph unicode="t" horiz-adv-x="1706" d="M1954 1339q-10 -10 -3 -23t18 -30.5t19.5 -38t2.5 -43.5q-111 15 -235 30t-258 24.5t-273.5 9.5t-278.5 -17q-10 -32 -16 -101t-11.5 -161t-8.5 -198.5l-6 -213t-8 -205t-12 -173t-18.5 -119.5t-27.5 -43q-31 2 -49.5 57.5t-27.5 141.5t-11 192.5t-2 210.5q2 102 4 184 t5 153t8 133t11 128q-205 -27 -378 -80t-314 -149q-12 10 -28.5 16t-30 15.5t-23.5 22.5t-10 36q8 32 18 57t33 48.5t60.5 46t103.5 50.5q67 29 185 56.5t266.5 47t318.5 30t341 5.5t335 -29t301 -71z" />
<glyph unicode="u" horiz-adv-x="1133" d="M135 1124q31 4 48.5 -3t27.5 -20.5t17.5 -28.5t19.5 -28q-39 -112 -64.5 -243t-25.5 -251t34.5 -214t118.5 -137q107 -54 199 -35.5t167 88.5t131 180.5t90 241.5t45 273.5t-5 275.5q14 10 19.5 13t15.5 21q20 5 32.5 -0.5t22.5 -11.5t21.5 -10t29.5 0q47 -123 46 -260 t-37.5 -272.5t-101 -259.5t-144.5 -219t-168 -153.5t-168 -62.5q-129 -8 -224.5 51.5t-157 157.5t-91 223t-27.5 252t35 242t94 190z" />
<glyph unicode="v" horiz-adv-x="997" d="M485 39q-79 10 -125.5 56t-74 113.5t-44 150.5t-36.5 165q-15 56 -39.5 138.5t-52 175t-56 188.5t-49 180t-32 149.5t-5.5 98.5q76 6 119 -36t66.5 -105.5t36 -136t28.5 -127.5q17 -54 34 -142t38.5 -189.5t49.5 -202.5t65 -179q63 125 110 266t94 285.5t104.5 282 t141.5 251.5q27 6 44.5 1t31.5 -16t25.5 -23.5t25.5 -22.5q2 -17 -29.5 -114t-82 -237.5t-111 -300t-116.5 -302t-100 -244t-61 -123.5z" />
<glyph unicode="w" horiz-adv-x="1706" d="M1640 1462q15 -28 33.5 -55t30.5 -55q-47 -158 -114.5 -329t-150.5 -339t-181.5 -321.5t-204.5 -278.5q-90 -21 -151.5 7t-101.5 83t-62.5 132t-35.5 155q-49 -53 -86.5 -123t-78.5 -134.5t-91.5 -113.5t-123.5 -57q-66 49 -108 127t-68.5 168t-39 183t-19.5 177 t-9 148.5t-8 97.5q-9 49 -31.5 115.5t-36.5 138.5t-11 140.5t48 117.5q57 -19 88 -67t46 -110.5t22.5 -133t15.5 -134.5q12 -100 20.5 -199.5t18.5 -197.5t26.5 -194.5t45.5 -188.5q63 29 101 82t62.5 116.5t43 133.5t43 130t62.5 108.5t103 68.5q54 -63 73 -138t29.5 -155 t26 -159.5t60.5 -151.5q104 68 178 157t128 191.5t97 213t88 222t97.5 219t125.5 203.5z" />
<glyph unicode="x" horiz-adv-x="1282" d="M604 963q70 59 137.5 119.5t140 116.5t150.5 106.5t168 89.5q33 -17 46.5 -50.5t15.5 -54.5q-74 -57 -151 -111.5t-151.5 -110.5t-142 -119.5t-123.5 -137.5q72 -129 151 -255t177 -234q-78 -23 -140.5 11t-112.5 94t-91 134t-74 133q-119 -110 -236.5 -222t-227 -232.5 t-206 -255t-170.5 -289.5q-28 2 -42.5 15.5t-20.5 29.5t-7 32.5t-1 24.5q0 64 29.5 129.5t75.5 130t101.5 127t106.5 119.5q68 78 131.5 144.5t122.5 130t118.5 124t119.5 125.5q-31 74 -66 141.5t-68.5 135t-64.5 139.5t-53 152q0 45 34.5 54t84.5 7q63 -123 118.5 -250 t120.5 -243z" />
<glyph unicode="y" horiz-adv-x="1051" d="M33 1452q26 -25 44.5 -72t40 -103t49.5 -115.5t75 -104.5q47 -47 104 -52.5t118.5 11t126 44t126.5 48.5q45 22 73.5 59t55 76t60.5 71t89 44q43 -41 45 -72t-19.5 -57.5t-56 -55t-63.5 -65.5q-16 -21 -23.5 -50.5t-13.5 -39.5q-6 -6 -21.5 -1t-19.5 1 q-45 -47 -89 -111.5t-95 -126.5q-72 -86 -147.5 -177t-150.5 -185t-146.5 -191.5t-133.5 -195.5q-47 53 -37.5 119.5t46 135t87 132t87.5 110.5q94 119 191 231.5t177 205.5q-77 -58 -159 -68t-158 14.5t-140.5 78.5t-107.5 127t-59.5 160t6.5 175q8 10 18.5 5t20.5 -5z" />
<glyph unicode="z" horiz-adv-x="1711" d="M0 160q18 48 46 82.5t62 59.5t70 45.5t70 43.5q101 67 207.5 130.5t214 124.5t214 119.5t207.5 115.5q-84 12 -165.5 26.5t-162 25t-161 11t-159.5 -14.5q-29 -7 -58.5 -20.5t-59.5 -24t-59.5 -10.5t-60.5 22q-16 42 -9.5 72t25.5 50.5t48.5 34.5t61 22.5t62 12t50.5 4.5 q42 7 93.5 9.5t108 1t115.5 -7.5t116 -15q57 -8 119.5 -16t116.5 -26t93 -51.5t48 -90.5q-19 -50 -50.5 -79t-73.5 -50.5t-92 -42t-105 -53.5q-56 -34 -144 -86t-191 -115.5t-211 -135t-204 -141.5q126 -16 244 -10t231.5 19t225.5 27t226 14.5t233 -16.5t248 -67 q1 -41 -19.5 -60t-50 -26t-61 -5t-51.5 2q-60 -2 -103 0.5t-91.5 4t-113.5 1.5t-168 -6q-70 -6 -161.5 -15t-189.5 -16t-194.5 -7t-177 11t-136.5 38.5t-73 77.5z" />
<glyph unicode="{" />
<glyph unicode="|" />
<glyph unicode="}" />
<glyph unicode="~" />
<glyph unicode="&#xa1;" horiz-adv-x="610" d="M170 0zM436 1012v-1012h-246v1012h246zM309 1509q60 0 100 -38.5t40 -102.5q0 -59 -40 -98t-100 -39q-61 0 -100 39t-39 98q0 64 39 102.5t100 38.5z" />
<glyph unicode="&#xa2;" horiz-adv-x="1139" />
<glyph unicode="&#xa3;" />
<glyph unicode="&#xa4;" />
<glyph unicode="&#xa5;" horiz-adv-x="1262" />
<glyph unicode="&#xa6;" />
<glyph unicode="&#xa7;" />
<glyph unicode="&#xa8;" horiz-adv-x="1024" />
<glyph unicode="&#xa9;" horiz-adv-x="1674" />
<glyph unicode="&#xaa;" horiz-adv-x="648" />
<glyph unicode="&#xab;" horiz-adv-x="944" />
<glyph unicode="&#xac;" />
<glyph unicode="&#xad;" horiz-adv-x="606" d="M59 670v174h492v-174h-492z" />
<glyph unicode="&#xae;" horiz-adv-x="1674" />
<glyph unicode="&#xaf;" horiz-adv-x="670" />
<glyph unicode="&#xb0;" horiz-adv-x="674" />
<glyph unicode="&#xb1;" />
<glyph unicode="&#xb2;" />
<glyph unicode="&#xb3;" />
<glyph unicode="&#xb4;" horiz-adv-x="741" d="M109 1581v117l524 157v-161z" />
<glyph unicode="&#xb5;" horiz-adv-x="1180" />
<glyph unicode="&#xb6;" horiz-adv-x="1024" />
<glyph unicode="&#xb7;" horiz-adv-x="508" />
<glyph unicode="&#xb8;" horiz-adv-x="1024" />
<glyph unicode="&#xb9;" />
<glyph unicode="&#xba;" horiz-adv-x="718" />
<glyph unicode="&#xbb;" horiz-adv-x="944" />
<glyph unicode="&#xbc;" horiz-adv-x="1708" />
<glyph unicode="&#xbd;" horiz-adv-x="1964" />
<glyph unicode="&#xbe;" horiz-adv-x="1708" />
<glyph unicode="&#xbf;" horiz-adv-x="1589" d="M57 0zM1014 842q96 0 96 86v82h246v-88q0 -138 -84 -218.5t-258 -80.5h-502q-86 0 -137 -47.5t-51 -133.5t50 -134t138 -48h983v-260h-983q-111 0 -195.5 32t-142 87t-87.5 132t-30 167q0 92 31 170t89.5 134t142.5 88t188 32h506zM1229 1505q59 0 99 -39t40 -102 q0 -59 -40 -98t-99 -39q-62 0 -100.5 39t-38.5 98q0 63 38.5 102t100.5 39z" />
<glyph unicode="&#xc0;" horiz-adv-x="2025" d="M29 0zM1681 0l-223 375h-704l123 211h456l-332 557l-675 -1143h-297l856 1425q22 39 53 61.5t74 22.5t72.5 -22.5t52.5 -61.5l858 -1425h-314zM688 1694v161l524 -157v-117z" />
<glyph unicode="&#xc1;" horiz-adv-x="2025" d="M29 0zM1681 0l-223 375h-704l123 211h456l-332 557l-675 -1143h-297l856 1425q22 39 53 61.5t74 22.5t72.5 -22.5t52.5 -61.5l858 -1425h-314zM811 1581v117l524 157v-161z" />
<glyph unicode="&#xc2;" horiz-adv-x="2025" d="M29 0zM1681 0l-223 375h-704l123 211h456l-332 557l-675 -1143h-297l856 1425q22 39 53 61.5t74 22.5t72.5 -22.5t52.5 -61.5l858 -1425h-314zM1149 1581l-129 199h-16l-130 -199h-141l187 274h186l186 -274h-143z" />
<glyph unicode="&#xc3;" horiz-adv-x="2025" d="M29 0zM1681 0l-223 375h-704l123 211h456l-332 557l-675 -1143h-297l856 1425q22 39 53 61.5t74 22.5t72.5 -22.5t52.5 -61.5l858 -1425h-314zM1274 1686q-47 -60 -135 -60q-35 0 -66 12.5t-61.5 27.5t-62 27.5t-66.5 12.5q-41 0 -78 -21.5t-55 -50.5v121q22 29 57 45.5 t76 16.5q35 0 66.5 -13.5t62 -29t61.5 -27.5t66 -12q41 0 77.5 22.5t57.5 50.5v-122z" />
<glyph unicode="&#xc4;" horiz-adv-x="2025" d="M29 0zM1681 0l-223 375h-704l123 211h456l-332 557l-675 -1143h-297l856 1425q22 39 53 61.5t74 22.5t72.5 -22.5t52.5 -61.5l858 -1425h-314zM928 1737q0 -43 -30 -67.5t-73 -24.5q-47 0 -76.5 24.5t-29.5 67.5t29.5 67.5t76.5 24.5q43 0 73 -24.5t30 -67.5zM1307 1737 q0 -43 -30 -67.5t-75 -24.5t-74.5 24.5t-29.5 67.5t29.5 67.5t74.5 24.5t75 -24.5t30 -67.5z" />
<glyph unicode="&#xc5;" horiz-adv-x="2025" d="M29 0zM1681 0l-223 375h-704l123 211h456l-332 557l-675 -1143h-297l856 1425q22 39 53 61.5t74 22.5t72.5 -22.5t52.5 -61.5l858 -1425h-314zM958 1581q-92 0 -150 60.5t-58 150.5q0 92 58 148.5t150 56.5h105q92 0 151.5 -56.5t59.5 -148.5q0 -90 -59.5 -150.5 t-151.5 -60.5h-105zM1063 1657q59 0 96 38t37 95t-37 93t-96 36h-105q-57 0 -94 -36t-37 -93t36 -95t95 -38h105z" />
<glyph unicode="&#xc6;" horiz-adv-x="2755" d="M1413 0v362h-676l127 216h549v651h-391l-700 -1229h-293l815 1401q24 41 55 64.5t74 23.5h1683v-260h-985v-969h989v-260h-1247zM1862 647v219h739v-219h-739z" />
<glyph unicode="&#xc7;" horiz-adv-x="1698" d="M86 0zM809 0q-156 0 -288 58.5t-229 159.5t-151.5 240.5t-54.5 301.5q0 164 54.5 299t151.5 230t229 147.5t288 52.5h807v-260h-807q-100 0 -185 -36t-146.5 -99.5t-96.5 -151.5t-35 -194q0 -105 35 -195t96.5 -154.5t146.5 -101.5t185 -37h807v-260h-807zM754 -96h272 l-137 -316z" />
<glyph unicode="&#xc8;" horiz-adv-x="1554" d="M129 0zM129 0v1489h1329v-260h-1071v-969h1073v-260h-1331zM578 647v219h825v-219h-825zM453 1694v161l524 -157v-117z" />
<glyph unicode="&#xc9;" horiz-adv-x="1554" d="M129 0zM129 0v1489h1329v-260h-1071v-969h1073v-260h-1331zM578 647v219h825v-219h-825zM575 1581v117l525 157v-161z" />
<glyph unicode="&#xca;" horiz-adv-x="1554" d="M129 0zM129 0v1489h1329v-260h-1071v-969h1073v-260h-1331zM578 647v219h825v-219h-825zM913 1581l-129 199h-16l-129 -199h-141l186 274h186l187 -274h-144z" />
<glyph unicode="&#xcb;" horiz-adv-x="1554" d="M129 0zM129 0v1489h1329v-260h-1071v-969h1073v-260h-1331zM578 647v219h825v-219h-825zM692 1737q0 -43 -29.5 -67.5t-72.5 -24.5q-47 0 -77 24.5t-30 67.5t30 67.5t77 24.5q43 0 72.5 -24.5t29.5 -67.5zM1071 1737q0 -43 -29.5 -67.5t-74.5 -24.5t-75 24.5t-30 67.5 t30 67.5t75 24.5t74.5 -24.5t29.5 -67.5z" />
<glyph unicode="&#xcc;" horiz-adv-x="547" d="M0 0zM143 0v1489h260v-1489h-260zM-47 1694v161l524 -157v-117z" />
<glyph unicode="&#xcd;" horiz-adv-x="547" d="M76 0zM143 0v1489h260v-1489h-260zM76 1581v117l524 157v-161z" />
<glyph unicode="&#xce;" horiz-adv-x="547" d="M0 0zM143 0v1489h260v-1489h-260zM412 1581l-129 199h-17l-129 -199h-141l186 274h187l186 -274h-143z" />
<glyph unicode="&#xcf;" horiz-adv-x="547" d="M0 0zM143 0v1489h260v-1489h-260zM190 1737q0 -43 -29.5 -67.5t-72.5 -24.5q-47 0 -76.5 24.5t-29.5 67.5t29.5 67.5t76.5 24.5q43 0 72.5 -24.5t29.5 -67.5zM569 1737q0 -43 -29.5 -67.5t-74.5 -24.5t-75 24.5t-30 67.5t30 67.5t75 24.5t74.5 -24.5t29.5 -67.5z" />
<glyph unicode="&#xd0;" horiz-adv-x="1796" d="M125 0v647h-105v219h105v623h862q158 0 291 -53.5t230.5 -149.5t151.5 -230t54 -296t-54 -301.5t-151.5 -240.5t-230.5 -159.5t-291 -58.5h-862zM383 647v-387h604q100 0 185 37t147.5 101.5t97.5 154.5t35 195q0 104 -35 193t-97.5 152.5t-147.5 99.5t-185 36h-604v-363 h586v-219h-586z" />
<glyph unicode="&#xd1;" horiz-adv-x="1788" d="M123 0zM371 1090v-1090h-248v1352q0 71 36 113t97 42q29 0 55.5 -12t55.5 -41l1050 -1042v1089h248v-1364q0 -74 -36 -114.5t-93 -40.5q-63 0 -119 55zM1155 1686q-47 -60 -135 -60q-35 0 -65.5 12.5t-61.5 27.5t-62.5 27.5t-66.5 12.5q-41 0 -78 -21.5t-55 -50.5v121 q22 29 57 45.5t76 16.5q35 0 66.5 -13.5t62.5 -29t61.5 -27.5t65.5 -12q41 0 78 22.5t57 50.5v-122z" />
<glyph unicode="&#xd2;" horiz-adv-x="1982" d="M86 0zM809 0q-156 0 -288 58.5t-229 159.5t-151.5 240.5t-54.5 301.5q0 164 54.5 299t151.5 230t229 147.5t288 52.5h362q162 0 296.5 -53.5t230.5 -149.5t149.5 -230t53.5 -296t-54.5 -301.5t-152 -240.5t-230.5 -159.5t-293 -58.5h-362zM1171 260q103 0 189 37 t148.5 101.5t97 154.5t34.5 195q0 104 -34.5 193t-97 152.5t-148.5 99.5t-189 36h-362q-100 0 -185 -36t-146.5 -99.5t-96.5 -151.5t-35 -194q0 -105 35 -195t96.5 -154.5t146.5 -101.5t185 -37h362zM668 1694v161l524 -157v-117z" />
<glyph unicode="&#xd3;" horiz-adv-x="1982" d="M86 0zM809 0q-156 0 -288 58.5t-229 159.5t-151.5 240.5t-54.5 301.5q0 164 54.5 299t151.5 230t229 147.5t288 52.5h362q162 0 296.5 -53.5t230.5 -149.5t149.5 -230t53.5 -296t-54.5 -301.5t-152 -240.5t-230.5 -159.5t-293 -58.5h-362zM1171 260q103 0 189 37 t148.5 101.5t97 154.5t34.5 195q0 104 -34.5 193t-97 152.5t-148.5 99.5t-189 36h-362q-100 0 -185 -36t-146.5 -99.5t-96.5 -151.5t-35 -194q0 -105 35 -195t96.5 -154.5t146.5 -101.5t185 -37h362zM791 1581v117l524 157v-161z" />
<glyph unicode="&#xd4;" horiz-adv-x="1982" d="M86 0zM809 0q-156 0 -288 58.5t-229 159.5t-151.5 240.5t-54.5 301.5q0 164 54.5 299t151.5 230t229 147.5t288 52.5h362q162 0 296.5 -53.5t230.5 -149.5t149.5 -230t53.5 -296t-54.5 -301.5t-152 -240.5t-230.5 -159.5t-293 -58.5h-362zM1171 260q103 0 189 37 t148.5 101.5t97 154.5t34.5 195q0 104 -34.5 193t-97 152.5t-148.5 99.5t-189 36h-362q-100 0 -185 -36t-146.5 -99.5t-96.5 -151.5t-35 -194q0 -105 35 -195t96.5 -154.5t146.5 -101.5t185 -37h362zM1126 1581l-129 199h-16l-129 -199h-141l186 274h186l187 -274h-144z" />
<glyph unicode="&#xd5;" horiz-adv-x="1982" d="M86 0zM809 0q-156 0 -288 58.5t-229 159.5t-151.5 240.5t-54.5 301.5q0 164 54.5 299t151.5 230t229 147.5t288 52.5h362q162 0 296.5 -53.5t230.5 -149.5t149.5 -230t53.5 -296t-54.5 -301.5t-152 -240.5t-230.5 -159.5t-293 -58.5h-362zM1171 260q103 0 189 37 t148.5 101.5t97 154.5t34.5 195q0 104 -34.5 193t-97 152.5t-148.5 99.5t-189 36h-362q-100 0 -185 -36t-146.5 -99.5t-96.5 -151.5t-35 -194q0 -105 35 -195t96.5 -154.5t146.5 -101.5t185 -37h362zM1253 1686q-47 -60 -135 -60q-35 0 -65.5 12.5t-61 27.5t-62.5 27.5 t-67 12.5q-41 0 -77.5 -21.5t-55.5 -50.5v121q23 29 57.5 45.5t75.5 16.5q35 0 67 -13.5t62.5 -29t61 -27.5t65.5 -12q41 0 78 22.5t57 50.5v-122z" />
<glyph unicode="&#xd6;" horiz-adv-x="1982" d="M86 0zM809 0q-156 0 -288 58.5t-229 159.5t-151.5 240.5t-54.5 301.5q0 164 54.5 299t151.5 230t229 147.5t288 52.5h362q162 0 296.5 -53.5t230.5 -149.5t149.5 -230t53.5 -296t-54.5 -301.5t-152 -240.5t-230.5 -159.5t-293 -58.5h-362zM1171 260q103 0 189 37 t148.5 101.5t97 154.5t34.5 195q0 104 -34.5 193t-97 152.5t-148.5 99.5t-189 36h-362q-100 0 -185 -36t-146.5 -99.5t-96.5 -151.5t-35 -194q0 -105 35 -195t96.5 -154.5t146.5 -101.5t185 -37h362zM905 1737q0 -43 -29.5 -67.5t-72.5 -24.5q-47 0 -77 24.5t-30 67.5 t30 67.5t77 24.5q43 0 72.5 -24.5t29.5 -67.5zM1284 1737q0 -43 -29.5 -67.5t-74.5 -24.5t-75 24.5t-30 67.5t30 67.5t75 24.5t74.5 -24.5t29.5 -67.5z" />
<glyph unicode="&#xd7;" horiz-adv-x="1413" d="M1055 287l-350 348l-347 -346l-122 121l348 348l-348 346l122 125l349 -348l346 346l121 -123l-347 -346l351 -348z" />
<glyph unicode="&#xd8;" horiz-adv-x="1982" d="M809 0q-86 0 -163 17.5t-146 50.5l-144 -170l-77 67l129 154q-148 100 -235 266t-87 375q0 164 54.5 299t151.5 230t229 147.5t288 52.5h362q95 0 180 -18.5t158 -53.5l146 172l78 -67l-134 -156q142 -96 222 -252t80 -354q0 -162 -54.5 -301.5t-152 -240.5 t-230.5 -159.5t-293 -58.5h-362zM1329 1204q-37 10 -77 17.5t-81 7.5h-362q-100 0 -185 -36t-146.5 -99.5t-96.5 -151.5t-35 -194q0 -146 62.5 -257.5t169.5 -171.5zM1171 260q103 0 189 37t148.5 101.5t97 154.5t34.5 195q0 137 -57 243.5t-158 167.5l-747 -883 q65 -16 131 -16h362z" />
<glyph unicode="&#xd9;" horiz-adv-x="1821" d="M106 0zM1460 1489h254v-832q0 -172 -45 -300t-141 -212t-249 -124.5t-370 -40.5q-215 0 -367.5 40.5t-248.5 124.5t-141.5 212t-45.5 300v832h269v-832q0 -112 27.5 -192t90 -131t167 -74.5t258.5 -23.5q153 0 257.5 23.5t167 74.5t90 131t27.5 192v832zM586 1694v161 l524 -157v-117z" />
<glyph unicode="&#xda;" horiz-adv-x="1821" d="M106 0zM1460 1489h254v-832q0 -172 -45 -300t-141 -212t-249 -124.5t-370 -40.5q-215 0 -367.5 40.5t-248.5 124.5t-141.5 212t-45.5 300v832h269v-832q0 -112 27.5 -192t90 -131t167 -74.5t258.5 -23.5q153 0 257.5 23.5t167 74.5t90 131t27.5 192v832zM709 1581v117 l524 157v-161z" />
<glyph unicode="&#xdb;" horiz-adv-x="1821" d="M106 0zM1460 1489h254v-832q0 -172 -45 -300t-141 -212t-249 -124.5t-370 -40.5q-215 0 -367.5 40.5t-248.5 124.5t-141.5 212t-45.5 300v832h269v-832q0 -112 27.5 -192t90 -131t167 -74.5t258.5 -23.5q153 0 257.5 23.5t167 74.5t90 131t27.5 192v832zM1047 1581 l-129 199h-17l-129 -199h-141l186 274h187l186 -274h-143z" />
<glyph unicode="&#xdc;" horiz-adv-x="1821" d="M106 0zM1460 1489h254v-832q0 -172 -45 -300t-141 -212t-249 -124.5t-370 -40.5q-215 0 -367.5 40.5t-248.5 124.5t-141.5 212t-45.5 300v832h269v-832q0 -112 27.5 -192t90 -131t167 -74.5t258.5 -23.5q153 0 257.5 23.5t167 74.5t90 131t27.5 192v832zM825 1737 q0 -43 -29.5 -67.5t-72.5 -24.5q-47 0 -77 24.5t-30 67.5t30 67.5t77 24.5q43 0 72.5 -24.5t29.5 -67.5zM1204 1737q0 -43 -29.5 -67.5t-74.5 -24.5t-75 24.5t-30 67.5t30 67.5t75 24.5t74.5 -24.5t29.5 -67.5z" />
<glyph unicode="&#xdd;" horiz-adv-x="1896" d="M27 0zM817 0v565l-790 924h350l579 -686l582 686h332l-793 -924v-565h-260zM756 1581v117l524 157v-161z" />
<glyph unicode="&#xde;" horiz-adv-x="1726" d="M578 186v250h536q141 0 219 81t78 216t-78 212t-219 77h-727v-1022h-258v1489h258v-207h727q129 0 232.5 -38t174 -108.5t108.5 -171t38 -223.5q0 -125 -38 -227t-108.5 -175t-174 -113t-232.5 -40h-536z" />
<glyph unicode="&#xdf;" horiz-adv-x="1251" />
<glyph unicode="&#xe0;" horiz-adv-x="1165" d="M1026 1149q45 0 61 -63q-46 -386 -102 -702q5 -64 10 -71q-25 -259 -66 -259q-33 -32 -92 -32q-65 0 -102 67q-110 117 -260 117q-240 -28 -240 -67q-111 -130 -153 -130q0 -9 -36 -9h-10q-36 23 -36 67q23 143 281 380q257 298 581 599q33 0 72 67q43 36 92 36zM413 353 v-4l51 4h102q114 0 235 -76q87 457 87 577q-121 -115 -357 -376q-51 -43 -118 -125zM582 523h10v-13q-10 0 -10 9v4zM842 1301v117l524 157v-161z" />
<glyph unicode="&#xe1;" horiz-adv-x="1165" d="M1026 1149q45 0 61 -63q-46 -386 -102 -702q5 -64 10 -71q-25 -259 -66 -259q-33 -32 -92 -32q-65 0 -102 67q-110 117 -260 117q-240 -28 -240 -67q-111 -130 -153 -130q0 -9 -36 -9h-10q-36 23 -36 67q23 143 281 380q257 298 581 599q33 0 72 67q43 36 92 36zM413 353 v-4l51 4h102q114 0 235 -76q87 457 87 577q-121 -115 -357 -376q-51 -43 -118 -125zM582 523h10v-13q-10 0 -10 9v4zM842 1301v117l524 157v-161z" />
<glyph unicode="&#xe2;" horiz-adv-x="922" />
<glyph unicode="&#xe3;" horiz-adv-x="922" />
<glyph unicode="&#xe4;" horiz-adv-x="922" />
<glyph unicode="&#xe5;" horiz-adv-x="922" />
<glyph unicode="&#xe6;" horiz-adv-x="1454" />
<glyph unicode="&#xe7;" horiz-adv-x="905" />
<glyph unicode="&#xe8;" horiz-adv-x="909" />
<glyph unicode="&#xe9;" horiz-adv-x="1391" d="M657 1149v117l524 157v-161zM205 912v-46q10 -38 93 -38l-112 -223q-112 -33 -112 -56v-56q16 -37 56 -37q-65 -158 -65 -270v-46q-58 0 -65 -75v-28q0 -26 84 -37q495 112 1042 112q159 0 159 93q-15 46 -56 46q-421 0 -866 -65l-28 56q28 163 65 233q103 0 131 9 q670 22 670 112v37q0 16 -19 19h-9q-177 0 -726 -47q108 239 130 261q698 73 698 158v56q-24 46 -74 46h-19l-810 -111q-167 -24 -167 -103z" />
<glyph unicode="&#xea;" horiz-adv-x="909" />
<glyph unicode="&#xeb;" horiz-adv-x="909" />
<glyph unicode="&#xec;" horiz-adv-x="514" />
<glyph unicode="&#xed;" horiz-adv-x="859" d="M442 1116v117l524 157v-161zM565 993q-139 0 -292 -263q-273 -528 -273 -691q5 -39 29 -39h88q68 0 156 39l87 263q16 162 341 633v29q0 23 -58 29h-78z" />
<glyph unicode="&#xee;" horiz-adv-x="514" />
<glyph unicode="&#xef;" horiz-adv-x="514" />
<glyph unicode="&#xf0;" horiz-adv-x="1139" />
<glyph unicode="&#xf1;" horiz-adv-x="1108" />
<glyph unicode="&#xf2;" horiz-adv-x="1010" />
<glyph unicode="&#xf3;" horiz-adv-x="1518" d="M857 1088v117l524 157v-161zM968 1012q-157 0 -457 -131q-511 -316 -511 -620q0 -261 413 -261h22q175 0 337 44q653 262 653 696q-8 141 -44 141q0 75 -391 131h-22zM326 315q0 106 142 294q219 228 424 250q151 0 207 -206q-33 -92 -33 -120q-238 -402 -468 -402h-54 q-218 43 -218 174v10z" />
<glyph unicode="&#xf4;" horiz-adv-x="1010" />
<glyph unicode="&#xf5;" horiz-adv-x="1010" />
<glyph unicode="&#xf6;" horiz-adv-x="1010" />
<glyph unicode="&#xf7;" />
<glyph unicode="&#xf8;" horiz-adv-x="1010" />
<glyph unicode="&#xf9;" horiz-adv-x="1059" />
<glyph unicode="&#xfa;" horiz-adv-x="1285" d="M591 1288v117l524 157v-161zM41 934q-33 -115 -35 -242t27 -252q30 -125 92 -223q61 -98 156 -157q96 -60 225 -52q80 4 168 63q88 58 168 153t145 219q64 124 101 260q36 135 37 272t-46 260q-18 -4 -30 0q-11 4 -21 10t-22 11q-13 6 -33 1q-10 -18 -16 -21 q-5 -3 -19 -13q16 -133 5 -275q-11 -143 -45 -274t-90 -242q-56 -110 -131 -180t-167 -88q-92 -19 -199 35q-84 43 -119 137q-34 94 -34 214t26 251q25 131 64 243q-12 13 -20 28q-7 15 -17 28q-10 14 -27 21q-18 7 -49 3q-61 -75 -94 -190z" />
<glyph unicode="&#xfb;" horiz-adv-x="1059" />
<glyph unicode="&#xfc;" horiz-adv-x="1059" />
<glyph unicode="&#xfd;" horiz-adv-x="868" />
<glyph unicode="&#xfe;" horiz-adv-x="1010" />
<glyph unicode="&#xff;" horiz-adv-x="868" />
<glyph unicode="&#x2c6;" horiz-adv-x="1024" />
<glyph unicode="&#x2dc;" horiz-adv-x="1024" />
<glyph unicode="&#x2000;" horiz-adv-x="998" />
<glyph unicode="&#x2001;" horiz-adv-x="1997" />
<glyph unicode="&#x2002;" horiz-adv-x="998" />
<glyph unicode="&#x2003;" horiz-adv-x="1997" />
<glyph unicode="&#x2004;" horiz-adv-x="665" />
<glyph unicode="&#x2005;" horiz-adv-x="499" />
<glyph unicode="&#x2006;" horiz-adv-x="332" />
<glyph unicode="&#x2007;" horiz-adv-x="332" />
<glyph unicode="&#x2008;" horiz-adv-x="249" />
<glyph unicode="&#x2009;" horiz-adv-x="399" />
<glyph unicode="&#x200a;" horiz-adv-x="110" />
<glyph unicode="&#x2010;" horiz-adv-x="606" d="M59 670v174h492v-174h-492z" />
<glyph unicode="&#x2011;" horiz-adv-x="606" d="M59 670v174h492v-174h-492z" />
<glyph unicode="&#x2012;" horiz-adv-x="606" d="M59 670v174h492v-174h-492z" />
<glyph unicode="&#x2013;" horiz-adv-x="1108" />
<glyph unicode="&#x2014;" horiz-adv-x="2048" />
<glyph unicode="&#x2018;" horiz-adv-x="557" />
<glyph unicode="&#x2019;" horiz-adv-x="557" />
<glyph unicode="&#x201a;" horiz-adv-x="557" />
<glyph unicode="&#x201c;" horiz-adv-x="910" />
<glyph unicode="&#x201d;" horiz-adv-x="910" />
<glyph unicode="&#x201e;" horiz-adv-x="910" />
<glyph unicode="&#x2022;" horiz-adv-x="1024" />
<glyph unicode="&#x2026;" horiz-adv-x="2048" />
<glyph unicode="&#x202f;" horiz-adv-x="399" />
<glyph unicode="&#x2039;" horiz-adv-x="631" />
<glyph unicode="&#x203a;" horiz-adv-x="631" />
<glyph unicode="&#x205f;" horiz-adv-x="499" />
<glyph unicode="&#x20ac;" />
<glyph unicode="&#x2122;" horiz-adv-x="1497" />
<glyph unicode="&#x25fc;" horiz-adv-x="1455" d="M0 1455h1455v-1455h-1455v1455z" />
</font>
</defs>
</svg>
